<svg width="179" height="52" viewBox="0 0 179 52" fill="none" xmlns="http://www.w3.org/2000/svg">
<path d="M169.876 0H9.44311C4.71755 0 0.886719 3.83083 0.886719 8.55639V42.782C0.886719 47.5075 4.71755 51.3384 9.44311 51.3384H169.876C174.601 51.3384 178.432 47.5075 178.432 42.782V8.55639C178.432 3.83083 174.601 0 169.876 0Z" fill="black"/>
<path d="M40.5009 25.3904C40.4688 21.2513 43.9768 19.2402 44.1372 19.1439C42.1479 16.3203 39.0676 15.9355 37.9873 15.9034C35.399 15.636 32.8856 17.4111 31.57 17.4111C30.2331 17.4111 28.201 15.9246 26.0084 15.9781C23.1955 16.0209 20.5645 17.6039 19.1206 20.0746C16.1365 25.1121 18.3611 32.5136 21.2168 36.5779C22.65 38.5779 24.3185 40.8022 26.5004 40.7166C28.6395 40.6311 29.431 39.3907 32.0193 39.3907C34.5648 39.3907 35.3242 40.7166 37.5489 40.6738C39.8377 40.631 41.2816 38.6633 42.6614 36.6526C44.3085 34.3744 44.9715 32.1178 45.0036 32.0109C44.9501 31.9895 40.5436 30.3531 40.5009 25.3904Z" fill="white"/>
<path d="M36.2971 13.2311C37.4415 11.83 38.2329 9.91538 38.0083 7.97949C36.3505 8.05436 34.2649 9.1026 33.067 10.4716C32.0082 11.6802 31.067 13.6696 31.3129 15.5306C33.174 15.6696 35.0992 14.6109 36.2971 13.2311Z" fill="white"/>
<path d="M65.3941 12.8451C65.3941 14.3639 64.9341 15.498 64.0036 16.2574C63.1479 16.9633 61.9286 17.316 60.3457 17.316C59.5649 17.316 58.8911 17.2841 58.3242 17.2199V8.96276C59.0622 8.84511 59.8538 8.79199 60.6987 8.79199C62.2068 8.79199 63.3404 9.11248 64.1105 9.74352C64.9662 10.4708 65.3941 11.5082 65.3941 12.8451ZM63.9394 12.8879C63.9394 11.9039 63.672 11.1554 63.1479 10.6313C62.6131 10.1072 61.8431 9.85057 60.8164 9.85057C60.3778 9.85057 60.0141 9.87205 59.704 9.93622V16.2146C59.8751 16.236 60.1853 16.2465 60.6345 16.2465C61.6933 16.2465 62.5062 15.9579 63.0838 15.391C63.6507 14.8135 63.9394 13.9789 63.9394 12.8879Z" fill="white"/>
<path d="M73.1024 14.1709C73.1024 15.1014 72.8243 15.861 72.2789 16.4599C71.712 17.0695 70.9526 17.3796 70.0114 17.3796C69.1023 17.3796 68.375 17.0907 67.8402 16.4918C67.2947 15.9035 67.0273 15.1654 67.0273 14.267C67.0273 13.3258 67.3055 12.5665 67.8616 11.9676C68.4178 11.3686 69.1665 11.0693 70.1184 11.0693C71.0275 11.0693 71.7548 11.3582 72.311 11.9571C72.8351 12.524 73.1024 13.2618 73.1024 14.1709ZM71.6693 14.2137C71.6693 13.6576 71.5408 13.1762 71.2948 12.7698C71.0061 12.2885 70.5997 12.0532 70.065 12.0532C69.5088 12.0532 69.0916 12.2885 68.8028 12.7698C68.5568 13.1762 68.4285 13.6576 68.4285 14.2352C68.4285 14.7913 68.5568 15.2725 68.8028 15.6682C69.1023 16.1495 69.5195 16.3957 70.0543 16.3957C70.5783 16.3957 70.9847 16.1497 71.2841 15.6577C71.5408 15.2513 71.6693 14.7699 71.6693 14.2137Z" fill="white"/>
<path d="M83.4335 11.1875L81.4868 17.2413H80.2248L79.4226 14.6207C79.2194 13.9576 79.0482 13.3051 78.9199 12.6634H78.8984C78.7808 13.3265 78.6097 13.979 78.3958 14.6207L77.5509 17.2413H76.2674L74.4492 11.1875H75.861L76.5669 14.0645C76.738 14.749 76.8771 15.4018 76.984 16.0114H77.0055C77.1124 15.5088 77.2835 14.856 77.5188 14.0859L78.3958 11.1985H79.5189L80.3639 14.0217C80.5671 14.7062 80.7382 15.3697 80.8665 16.0114H80.8986C80.9949 15.3911 81.1338 14.7276 81.3263 14.0217L82.0751 11.1985H83.4335V11.1875Z" fill="white"/>
<path d="M90.5778 17.2407H89.198V13.7751C89.198 12.7055 88.781 12.1707 87.9467 12.1707C87.5403 12.1707 87.2087 12.3204 86.952 12.6199C86.6953 12.9086 86.567 13.2618 86.567 13.6576V17.2407H85.1872V12.9196C85.1872 12.3956 85.1766 11.8179 85.1445 11.1868H86.3531L86.4172 12.1389H86.4601C86.6205 11.8394 86.8558 11.6042 87.166 11.401C87.5403 11.1764 87.9574 11.0693 88.4173 11.0693C88.9948 11.0693 89.4761 11.2509 89.8611 11.6146C90.3424 12.0638 90.5778 12.727 90.5778 13.6147V17.2407Z" fill="white"/>
<path d="M94.3719 17.2408H92.9922V8.41699H94.3719V17.2408Z" fill="white"/>
<path d="M102.482 14.1709C102.482 15.1014 102.215 15.861 101.669 16.4599C101.103 17.0695 100.343 17.3796 99.4021 17.3796C98.4822 17.3796 97.7656 17.0907 97.2201 16.4918C96.6854 15.9035 96.418 15.1654 96.418 14.267C96.418 13.3258 96.6961 12.5665 97.2522 11.9676C97.8084 11.3686 98.5571 11.0693 99.4983 11.0693C100.407 11.0693 101.145 11.3582 101.691 11.9571C102.226 12.524 102.482 13.2618 102.482 14.1709ZM101.06 14.2137C101.06 13.6576 100.932 13.1762 100.686 12.7698C100.397 12.2885 99.9797 12.0532 99.4556 12.0532C98.8994 12.0532 98.4715 12.2885 98.1828 12.7698C97.9368 13.1762 97.8191 13.6576 97.8191 14.2352C97.8191 14.7913 97.9368 15.2725 98.1828 15.6682C98.4822 16.1495 98.8994 16.3957 99.4342 16.3957C99.9689 16.3957 100.375 16.1497 100.675 15.6577C100.932 15.2513 101.06 14.7699 101.06 14.2137Z" fill="white"/>
<path d="M109.157 17.2407H107.917L107.821 16.5456H107.778C107.361 17.1017 106.751 17.3796 105.97 17.3796C105.382 17.3796 104.911 17.198 104.558 16.8344C104.227 16.5028 104.066 16.0853 104.066 15.604C104.066 14.8553 104.387 14.2993 105.018 13.9035C105.649 13.5185 106.548 13.3262 107.692 13.3369V13.2189C107.692 12.4274 107.264 12.0214 106.409 12.0214C105.799 12.0214 105.254 12.1817 104.794 12.4705L104.505 11.5931C105.083 11.2402 105.799 11.0693 106.633 11.0693C108.259 11.0693 109.072 11.9034 109.072 13.5719V15.7967C109.072 16.4063 109.104 16.8877 109.157 17.2407ZM107.724 15.1658V14.2352C106.206 14.2031 105.446 14.6096 105.446 15.4546C105.446 15.7648 105.532 15.9997 105.714 16.1601C105.885 16.3206 106.12 16.3957 106.387 16.3957C106.687 16.3957 106.976 16.2991 107.232 16.1173C107.489 15.9248 107.649 15.6896 107.703 15.4008C107.724 15.3366 107.724 15.2514 107.724 15.1658Z" fill="white"/>
<path d="M117 17.2408H115.77L115.705 16.2673H115.673C115.277 17.0053 114.614 17.3797 113.684 17.3797C112.935 17.3797 112.315 17.0911 111.812 16.5243C111.32 15.9467 111.074 15.2084 111.074 14.2885C111.074 13.3153 111.342 12.5241 111.876 11.9144C112.4 11.3476 113.042 11.0695 113.791 11.0695C114.625 11.0695 115.213 11.3369 115.545 11.893H115.566V8.41699H116.946V15.615C116.946 16.2033 116.967 16.7488 117 17.2408ZM115.566 14.6954V13.6791C115.566 13.508 115.556 13.3688 115.534 13.2618C115.449 12.9303 115.288 12.6629 115.031 12.4382C114.775 12.2243 114.465 12.1176 114.112 12.1176C113.598 12.1176 113.192 12.3102 112.892 12.7166C112.604 13.1123 112.454 13.6254 112.454 14.2457C112.454 14.8447 112.593 15.3263 112.882 15.7007C113.181 16.0964 113.577 16.2997 114.08 16.2997C114.539 16.2997 114.892 16.1283 115.171 15.7968C115.438 15.4866 115.566 15.1232 115.566 14.6954Z" fill="white"/>
<path d="M128.782 14.1709C128.782 15.1014 128.515 15.861 127.969 16.4599C127.392 17.0695 126.643 17.3796 125.691 17.3796C124.782 17.3796 124.065 17.0907 123.52 16.4918C122.974 15.9035 122.707 15.1654 122.707 14.267C122.707 13.3258 122.985 12.5665 123.541 11.9676C124.097 11.3686 124.857 11.0693 125.798 11.0693C126.707 11.0693 127.434 11.3582 127.991 11.9571C128.515 12.524 128.782 13.2618 128.782 14.1709ZM127.349 14.2137C127.349 13.6576 127.231 13.1762 126.985 12.7698C126.696 12.2885 126.279 12.0532 125.745 12.0532C125.199 12.0532 124.771 12.2885 124.483 12.7698C124.237 13.1762 124.108 13.6576 124.108 14.2352C124.108 14.7913 124.237 15.2725 124.483 15.6682C124.782 16.1495 125.199 16.3957 125.734 16.3957C126.258 16.3957 126.675 16.1497 126.975 15.6577C127.221 15.2513 127.349 14.7699 127.349 14.2137Z" fill="white"/>
<path d="M136.195 17.2407H134.815V13.7751C134.815 12.7055 134.398 12.1707 133.564 12.1707C133.158 12.1707 132.826 12.3204 132.569 12.6199C132.313 12.9086 132.184 13.2618 132.184 13.6576V17.2407H130.804V12.9196C130.804 12.3956 130.794 11.8179 130.762 11.1868H131.97L132.034 12.1389H132.067C132.227 11.8394 132.473 11.6042 132.783 11.401C133.157 11.1764 133.575 11.0693 134.034 11.0693C134.612 11.0693 135.093 11.2509 135.478 11.6146C135.949 12.0638 136.195 12.727 136.195 13.6147V17.2407Z" fill="white"/>
<path d="M145.467 12.205H143.948V15.1462C143.948 15.8842 144.216 16.2586 144.75 16.2586C144.996 16.2586 145.199 16.2371 145.371 16.1943L145.403 17.2211C145.125 17.3173 144.772 17.371 144.333 17.371C143.788 17.371 143.36 17.2103 143.06 16.8895C142.75 16.5579 142.6 16.0121 142.6 15.2527V12.205H141.691V11.1996H142.6V10.0873L143.948 9.69141V11.1887H145.467V12.205Z" fill="white"/>
<path d="M152.762 17.2408H151.382V13.8076C151.382 12.7166 150.965 12.1709 150.131 12.1709C149.489 12.1709 149.061 12.4919 148.815 13.1229C148.772 13.2513 148.751 13.4119 148.751 13.6044V17.2408H147.371V8.41699H148.751V12.0638H148.783C149.211 11.4007 149.831 11.0695 150.644 11.0695C151.211 11.0695 151.681 11.251 152.056 11.6147C152.526 12.0746 152.762 12.7483 152.762 13.6467V17.2408Z" fill="white"/>
<path d="M160.296 13.9366C160.296 14.1719 160.275 14.3754 160.243 14.5466H156.104C156.125 15.1455 156.328 15.5945 156.703 15.9154C157.056 16.1934 157.505 16.3326 158.061 16.3326C158.67 16.3326 159.227 16.2361 159.729 16.0543L159.943 16.9849C159.355 17.2309 158.671 17.3594 157.868 17.3594C156.906 17.3594 156.146 17.0815 155.601 16.5253C155.055 15.9799 154.777 15.2415 154.777 14.311C154.777 13.3912 155.034 12.632 155.547 12.033C156.082 11.3806 156.799 11.0596 157.708 11.0596C158.606 11.0596 159.28 11.3806 159.74 12.033C160.114 12.5464 160.296 13.1772 160.296 13.9366ZM158.981 13.5841C158.991 13.1883 158.895 12.8461 158.713 12.5574C158.467 12.183 158.104 11.9902 157.612 11.9902C157.162 11.9902 156.799 12.1723 156.521 12.5359C156.285 12.8354 156.157 13.1777 156.104 13.5841H158.981Z" fill="white"/>
<path d="M71.4267 40.4393H68.4427L66.8063 35.4232H61.1162L59.5654 40.4393H56.6562L62.2928 23.3584H65.7688L71.4267 40.4393ZM66.3143 33.316L64.8383 28.856C64.6779 28.3961 64.389 27.3268 63.9505 25.6369H63.8971C63.726 26.3642 63.4479 27.4335 63.0735 28.856L61.619 33.316H66.3143Z" fill="white"/>
<path d="M85.9235 34.1302C85.9235 36.2266 85.3459 37.8733 84.1801 39.0926C83.1427 40.1728 81.8592 40.7183 80.3191 40.7183C78.6506 40.7183 77.4634 40.1304 76.7361 38.9646H76.6826V45.4566H73.8804V32.1729C73.8804 30.8573 73.8376 29.5097 73.7734 28.1192H76.2333L76.3938 30.0766H76.4473C77.3778 28.6006 78.8003 27.8623 80.7041 27.8623C82.1908 27.8623 83.4314 28.44 84.4261 29.5951C85.4315 30.7395 85.9235 32.2478 85.9235 34.1302ZM83.0678 34.2263C83.0678 33.0284 82.7898 32.0444 82.2336 31.2637C81.6347 30.4508 80.8218 30.0442 79.795 30.0442C79.0998 30.0442 78.4794 30.2692 77.9126 30.7184C77.3564 31.1677 76.982 31.7558 76.8109 32.4831C76.7254 32.8147 76.6826 33.0925 76.6826 33.3171V35.3706C76.6826 36.2583 76.9607 37.0178 77.5276 37.6381C78.0837 38.2585 78.8216 38.5578 79.7201 38.5578C80.7789 38.5578 81.5918 38.1622 82.1801 37.3707C82.779 36.5793 83.0678 35.5312 83.0678 34.2263Z" fill="white"/>
<path d="M100.439 34.1302C100.439 36.2266 99.8616 37.8733 98.6958 39.0926C97.6583 40.1728 96.3749 40.7183 94.8347 40.7183C93.1662 40.7183 91.979 40.1304 91.2517 38.9646H91.1982V45.4566H88.396V32.1729C88.396 30.8573 88.3532 29.5097 88.2891 28.1192H90.7491L90.9095 30.0766H90.9629C91.8934 28.6006 93.3159 27.8623 95.2197 27.8623C96.7064 27.8623 97.9471 28.44 98.9524 29.5951C99.9364 30.7395 100.439 32.2478 100.439 34.1302ZM97.5835 34.2263C97.5835 33.0284 97.3054 32.0444 96.7492 31.2637C96.1396 30.4508 95.3374 30.0442 94.3106 30.0442C93.6154 30.0442 92.9951 30.2692 92.4282 30.7184C91.8614 31.1677 91.4978 31.7558 91.3267 32.4831C91.2411 32.8147 91.1982 33.0925 91.1982 33.3171V35.3706C91.1982 36.2583 91.4763 37.0178 92.0325 37.6381C92.5993 38.2478 93.3267 38.5578 94.2358 38.5578C95.2947 38.5578 96.1075 38.1622 96.6957 37.3707C97.284 36.5793 97.5835 35.5312 97.5835 34.2263Z" fill="white"/>
<path d="M116.676 35.6474C116.676 37.1019 116.152 38.2785 115.115 39.1876C113.981 40.193 112.387 40.6849 110.355 40.6849C108.473 40.6849 106.954 40.3317 105.82 39.6258L106.462 37.3478C107.692 38.0644 109.05 38.4387 110.516 38.4387C111.575 38.4387 112.398 38.2033 112.986 37.7327C113.575 37.2728 113.863 36.642 113.863 35.8719C113.863 35.1767 113.628 34.5883 113.136 34.1177C112.655 33.6471 111.853 33.2086 110.73 32.8022C107.66 31.6792 106.131 30.0534 106.131 27.9036C106.131 26.4918 106.665 25.3474 107.746 24.4489C108.815 23.5505 110.238 23.1016 112.024 23.1016C113.617 23.1016 114.944 23.3794 116.002 23.9142L115.297 26.1499C114.313 25.6258 113.2 25.3582 111.949 25.3582C110.965 25.3582 110.195 25.5934 109.639 26.0747C109.168 26.4918 108.933 27.0051 108.933 27.6148C108.933 28.2886 109.2 28.8451 109.746 29.2943C110.206 29.69 111.061 30.1285 112.291 30.6098C113.789 31.1981 114.901 31.8932 115.607 32.6847C116.323 33.4761 116.676 34.4602 116.676 35.6474Z" fill="white"/>
<path d="M125.941 30.172H122.85V36.1506C122.85 37.6694 123.396 38.4292 124.487 38.4292C124.989 38.4292 125.406 38.386 125.738 38.3111L125.813 40.386C125.257 40.5892 124.529 40.6858 123.631 40.6858C122.529 40.6858 121.663 40.3543 121.032 39.7019C120.411 39.0387 120.101 37.9367 120.101 36.3752V30.172H118.262V28.1186H120.101V25.862L122.85 25.0488V28.1186H125.941V30.172Z" fill="white"/>
<path d="M139.883 34.1731C139.883 36.0662 139.327 37.6276 138.226 38.8362C137.06 40.0875 135.52 40.7183 133.594 40.7183C131.744 40.7183 130.268 40.1194 129.167 38.9108C128.076 37.7129 127.52 36.2051 127.52 34.3762C127.52 32.4724 128.086 30.9105 129.22 29.6912C130.354 28.4719 131.883 27.8623 133.808 27.8623C135.659 27.8623 137.145 28.4724 138.268 29.6703C139.349 30.8361 139.883 32.3334 139.883 34.1731ZM136.974 34.2692C136.974 33.1247 136.728 32.1512 136.226 31.3383C135.637 30.3544 134.792 29.8735 133.702 29.8735C132.579 29.8735 131.723 30.3651 131.135 31.3383C130.632 32.1512 130.386 33.1462 130.386 34.312C130.386 35.4564 130.632 36.4297 131.135 37.2318C131.744 38.2158 132.589 38.7077 133.68 38.7077C134.75 38.7077 135.595 38.2051 136.194 37.2104C136.718 36.3869 136.974 35.4029 136.974 34.2692Z" fill="white"/>
<path d="M148.999 30.5257C148.721 30.4723 148.421 30.4511 148.111 30.4511C147.127 30.4511 146.368 30.8147 145.833 31.542C145.362 32.1837 145.127 32.9961 145.127 33.9694V40.4405H142.325L142.357 32.0016C142.357 30.5791 142.314 29.2851 142.25 28.1192H144.688L144.796 30.4829H144.87C145.17 29.6701 145.63 29.0175 146.272 28.5256C146.892 28.087 147.576 27.8623 148.304 27.8623C148.56 27.8623 148.796 27.884 148.999 27.9161V30.5257Z" fill="white"/>
<path d="M161.54 33.6905C161.54 34.1825 161.497 34.5998 161.433 34.9314H153.016C153.058 36.1506 153.465 37.081 154.246 37.7227C154.952 38.3003 155.871 38.5891 156.994 38.5891C158.235 38.5891 159.369 38.3963 160.396 38.0006L160.834 39.9047C159.636 40.4073 158.235 40.664 156.609 40.664C154.652 40.664 153.112 40.097 151.989 38.974C150.877 37.851 150.32 36.3429 150.32 34.4498C150.32 32.5995 150.834 31.0486 151.882 29.8186C152.973 28.5031 154.438 27.8398 156.288 27.8398C158.107 27.8398 159.486 28.5031 160.417 29.8186C161.166 30.8668 161.54 32.1611 161.54 33.6905ZM158.866 32.9844C158.877 32.1716 158.695 31.4767 158.321 30.8777C157.829 30.1183 157.091 29.7439 156.085 29.7439C155.165 29.7439 154.417 30.1076 153.85 30.8563C153.379 31.4446 153.101 32.1609 153.016 32.9844H158.866Z" fill="white"/>
</svg>
