<svg width="149" height="46" viewBox="0 0 149 46" fill="none" xmlns="http://www.w3.org/2000/svg">
<path d="M22.8486 2.60425C20.1702 2.60425 17.518 3.13185 15.0435 4.15675C12.569 5.18177 10.3208 6.68404 8.42678 8.5779C6.53291 10.4719 5.03064 12.7202 4.00563 15.1947C2.98073 17.6691 2.45312 20.3214 2.45312 22.9997C2.45312 25.678 2.98073 28.3303 4.00563 30.8047C5.03064 33.2792 6.53291 35.5275 8.42678 37.4215C10.3208 39.3154 12.569 40.8176 15.0435 41.8427C17.518 42.8675 20.1702 43.3952 22.8486 43.3952V33.1974C21.5094 33.1974 20.1833 32.9337 18.9461 32.4211C17.7088 31.9087 16.5846 31.1575 15.6377 30.2106C14.6907 29.2637 13.9396 28.1395 13.4272 26.9022C12.9146 25.665 12.6509 24.3389 12.6509 22.9997C12.6509 21.6605 12.9146 20.3344 13.4272 19.0972C13.9396 17.8599 14.6907 16.7357 15.6377 15.7888C16.5846 14.8419 17.7088 14.0907 18.9461 13.5783C20.1833 13.0657 21.5094 12.802 22.8486 12.802V2.60425Z" fill="#0F52FF"/>
<path d="M22.8453 29.7983C26.6001 29.7983 29.6438 26.7546 29.6438 22.9999C29.6438 19.2451 26.6001 16.2014 22.8453 16.2014C19.0906 16.2014 16.0469 19.2451 16.0469 22.9999C16.0469 26.7546 19.0906 29.7983 22.8453 29.7983Z" fill="#0F52FF"/>
<path d="M2.45312 22.9998C2.45312 25.6781 2.98073 28.3303 4.00563 30.8048C5.03064 33.2793 6.53291 35.5276 8.42678 37.4216C10.3208 39.3154 12.569 40.8177 15.0435 41.8427C17.518 42.8676 20.1702 43.3952 22.8486 43.3952C25.5269 43.3952 28.1791 42.8676 30.6536 41.8427C33.1281 40.8177 35.3764 39.3154 37.2704 37.4216C39.1642 35.5276 40.6665 33.2793 41.6915 30.8048C42.7164 28.3303 43.244 25.6781 43.244 22.9998H33.0463C33.0463 24.339 32.7826 25.665 32.27 26.9023C31.7575 28.1395 31.0064 29.2637 30.0595 30.2107C29.1125 31.1576 27.9883 31.9087 26.7511 32.4212C25.5139 32.9337 24.1878 33.1975 22.8486 33.1975C21.5094 33.1975 20.1833 32.9337 18.9461 32.4212C17.7088 31.9087 16.5846 31.1576 15.6377 30.2107C14.6907 29.2637 13.9396 28.1395 13.4272 26.9023C12.9146 25.665 12.6509 24.339 12.6509 22.9998H2.45312Z" fill="#5BD0F4"/>
<path d="M29.6439 23C29.6439 21.1969 28.9276 19.4677 27.6527 18.1927C26.3777 16.9177 24.6485 16.2014 22.8454 16.2014C21.0424 16.2014 19.3132 16.9177 18.0382 18.1927C16.7632 19.4677 16.0469 21.1969 16.0469 23H22.8454H29.6439Z" fill="#5BD0F4"/>
<path d="M53.8925 15.3372H51.3594V29.41H53.8925V15.3372Z" fill="#0F52FF"/>
<path d="M55.5469 24.4243C55.5469 27.6811 57.7985 29.6915 60.7739 29.6915C63.7493 29.6915 66.001 27.6811 66.001 24.4243C66.001 21.1674 63.7493 19.157 60.7739 19.157C57.7985 19.157 55.5469 21.1674 55.5469 24.4243ZM58.08 24.4243C58.08 22.4943 59.2058 21.3684 60.7739 21.3684C62.3421 21.3684 63.4679 22.4943 63.4679 24.4243C63.4679 26.3542 62.3421 27.4801 60.7739 27.4801C59.2058 27.4801 58.08 26.3542 58.08 24.4243Z" fill="#0F52FF"/>
<path d="M75.0561 19.4384V20.7854H74.8551C74.2519 19.9209 73.287 19.157 71.558 19.157C69.1857 19.157 67.0547 21.1674 67.0547 24.2634C67.0547 27.3595 69.1857 29.3699 71.558 29.3699C73.287 29.3699 74.2519 28.5857 74.8149 27.8017H75.0159V28.7667C75.0159 30.6967 73.8901 31.5813 72.2415 31.5813C70.593 31.5813 69.7486 30.6967 69.4068 29.5507L67.1351 30.5359C67.6578 32.0436 69.1857 33.7123 72.2818 33.7123C75.4582 33.7123 77.549 32.0436 77.549 28.827V19.4384H75.0561ZM72.322 27.1986C70.7538 27.1986 69.5878 26.0728 69.5878 24.2634C69.5878 22.4541 70.7538 21.3282 72.322 21.3282C73.8901 21.3282 75.0561 22.4541 75.0561 24.2634C75.0561 26.0728 73.8901 27.1986 72.322 27.1986Z" fill="#0F52FF"/>
<path d="M79.1875 24.4243C79.1875 27.6811 81.4392 29.6915 84.4146 29.6915C87.39 29.6915 89.6415 27.6811 89.6415 24.4243C89.6415 21.1674 87.39 19.157 84.4146 19.157C81.4392 19.157 79.1875 21.1674 79.1875 24.4243ZM81.7206 24.4243C81.7206 22.4943 82.8464 21.3684 84.4146 21.3684C85.9827 21.3684 87.1085 22.4943 87.1085 24.4243C87.1085 26.3542 85.9827 27.4801 84.4146 27.4801C82.8464 27.4801 81.7206 26.3542 81.7206 24.4243Z" fill="#0F52FF"/>
<path d="M91.6289 16.5429C91.6289 17.5683 92.4133 18.2719 93.419 18.2719C94.4237 18.2719 95.208 17.5683 95.208 16.5429C95.208 15.5177 94.4237 14.814 93.419 14.814C92.4133 14.814 91.6289 15.5177 91.6289 16.5429ZM94.6847 19.4379H92.1522V29.4095H94.6847V19.4379Z" fill="#5BD0F4"/>
<path d="M96.9453 33.4309H99.479V28.1234H99.6795C100.242 28.9276 101.207 29.6915 102.937 29.6915C105.309 29.6915 107.44 27.6811 107.44 24.4243C107.44 21.1674 105.309 19.157 102.937 19.157C101.207 19.157 100.242 19.9209 99.6398 20.7855H99.4382V19.4384H96.9453V33.4309ZM102.172 27.5203C100.605 27.5203 99.4382 26.3945 99.4382 24.4243C99.4382 22.4541 100.605 21.3282 102.172 21.3282C103.741 21.3282 104.907 22.4541 104.907 24.4243C104.907 26.3945 103.741 27.5203 102.172 27.5203Z" fill="#5BD0F4"/>
<path d="M108.917 22.233C108.917 24.2032 110.565 24.9269 112.656 25.329L113.179 25.4295C114.425 25.6707 114.988 25.9723 114.988 26.6157C114.988 27.259 114.425 27.7615 113.26 27.7615C112.093 27.7615 111.149 27.279 110.887 25.8315L108.555 26.4347C108.897 28.5255 110.646 29.6915 113.26 29.6915C115.792 29.6915 117.441 28.5054 117.441 26.4146C117.441 24.3237 115.753 23.7609 113.501 23.3186L112.978 23.218C111.932 23.017 111.369 22.7355 111.369 22.0721C111.369 21.469 111.893 21.087 112.858 21.087C113.823 21.087 114.505 21.4891 114.747 22.5747L117.039 21.8711C116.557 20.2628 115.089 19.157 112.858 19.157C110.485 19.157 108.917 20.2628 108.917 22.233Z" fill="#5BD0F4"/>
<path d="M128.814 29.4099V19.4382H126.281V24.5849C126.281 26.4345 125.377 27.5201 123.828 27.5201C122.461 27.5201 121.698 26.7763 121.698 25.2684V19.4382H119.164V25.389C119.164 27.8619 120.713 29.5707 123.045 29.5707C124.874 29.5707 125.719 28.7665 126.121 27.9222H126.321V29.4099H128.814Z" fill="#5BD0F4"/>
<path d="M131.062 19.4384V29.41H133.596V23.4592C133.596 22.0922 134.24 21.3282 135.405 21.3282C136.411 21.3282 137.013 21.8911 137.013 22.9767V29.41H139.547V23.4592C139.547 22.0922 140.19 21.3282 141.356 21.3282C142.362 21.3282 142.964 21.8911 142.964 22.9767V29.41H145.498V22.8561C145.498 20.4436 144.01 19.2776 142.16 19.2776C140.532 19.2776 139.788 20.0013 139.306 20.8457H139.104C138.641 19.9009 137.817 19.2776 136.37 19.2776C134.922 19.2776 134.138 19.9209 133.757 20.6849H133.555V19.4384H131.062Z" fill="#5BD0F4"/>
</svg>
