<svg width="170" height="44" viewBox="0 0 170 44" fill="none" xmlns="http://www.w3.org/2000/svg">
<g clip-path="url(#clip0_9181_35696)">
<path d="M54.4688 29.9225H66.8668V26.1881H58.8753V12.1221H54.4688V29.9225Z" fill="#F18A8A"/>
<path d="M74.2106 27.4337C72.443 27.4337 71.5218 25.8901 71.5218 23.5748C71.5218 21.2596 72.443 19.6911 74.2106 19.6911C75.9782 19.6911 76.9242 21.2596 76.9242 23.5748C76.9242 25.8901 75.9782 27.4337 74.2106 27.4337ZM74.2355 30.3216C78.3433 30.3216 81.032 27.4088 81.032 23.5748C81.032 19.7409 78.3433 16.8281 74.2355 16.8281C70.1526 16.8281 67.4141 19.7409 67.4141 23.5748C67.4141 27.4088 70.1526 30.3216 74.2355 30.3216Z" fill="#F18A8A"/>
<path d="M88.1462 34.3293C90.0383 34.3293 91.7063 33.9061 92.8266 32.9102C93.8473 31.9891 94.5195 30.5949 94.5195 28.678V17.1762H90.6358V18.5454H90.586C89.8391 17.4749 88.6939 16.8027 87.001 16.8027C83.8393 16.8027 81.6484 19.4417 81.6484 23.176C81.6484 27.0846 84.3123 29.2257 87.1753 29.2257C88.7188 29.2257 89.6897 28.6033 90.4366 27.7568H90.5362V29.0265C90.5362 30.57 89.8142 31.4663 88.0964 31.4663C86.7521 31.4663 86.0799 30.8937 85.8558 30.2215H81.9223C82.3206 32.8853 84.6359 34.3293 88.1462 34.3293ZM88.1213 26.2133C86.6027 26.2133 85.6068 24.9685 85.6068 23.0515C85.6068 21.1097 86.6027 19.8649 88.1213 19.8649C89.8142 19.8649 90.7105 21.3088 90.7105 23.0266C90.7105 24.8191 89.8889 26.2133 88.1213 26.2133Z" fill="#F18A8A"/>
<path d="M102.507 27.4337C100.74 27.4337 99.8187 25.8901 99.8187 23.5748C99.8187 21.2596 100.74 19.6911 102.507 19.6911C104.275 19.6911 105.221 21.2596 105.221 23.5748C105.221 25.8901 104.275 27.4337 102.507 27.4337ZM102.532 30.3216C106.64 30.3216 109.329 27.4088 109.329 23.5748C109.329 19.7409 106.64 16.8281 102.532 16.8281C98.4495 16.8281 95.7109 19.7409 95.7109 23.5748C95.7109 27.4088 98.4495 30.3216 102.532 30.3216Z" fill="#F18A8A"/>
<path d="M110.508 29.9225H114.566V17.1759H110.508V29.9225ZM110.508 15.4083H114.566V12.1221H110.508V15.4083Z" fill="#F18A8A"/>
<path d="M116.328 34.1301H120.386V28.6033H120.436C121.233 29.6738 122.403 30.3211 124.046 30.3211C127.382 30.3211 129.598 27.6821 129.598 23.5495C129.598 19.7155 127.531 16.8027 124.145 16.8027C122.403 16.8027 121.158 17.5745 120.287 18.7197H120.212V17.1762H116.328V34.1301ZM123 27.1842C121.257 27.1842 120.262 25.7652 120.262 23.6988C120.262 21.6325 121.158 20.0641 122.925 20.0641C124.668 20.0641 125.49 21.508 125.49 23.6988C125.49 25.8648 124.544 27.1842 123 27.1842Z" fill="#F18A8A"/>
<path d="M136.207 30.3211C139.543 30.3211 142.008 28.8771 142.008 26.0888C142.008 22.8275 139.369 22.2549 137.128 21.8814C135.51 21.5827 134.066 21.4582 134.066 20.562C134.066 19.7653 134.838 19.3919 135.833 19.3919C136.954 19.3919 137.725 19.7404 137.875 20.8856H141.609C141.41 18.3712 139.468 16.8027 135.858 16.8027C132.846 16.8027 130.356 18.1969 130.356 20.8856C130.356 23.8731 132.721 24.4706 134.937 24.844C136.63 25.1428 138.174 25.2673 138.174 26.4125C138.174 27.234 137.402 27.6821 136.182 27.6821C134.838 27.6821 133.991 27.0597 133.842 25.7901H130.008C130.132 28.6033 132.472 30.3211 136.207 30.3211Z" fill="#F18A8A"/>
<path d="M147.52 30.2963C149.288 30.2963 150.408 29.5992 151.329 28.3544H151.404V29.9228H155.288V17.1763H151.23V24.2964C151.23 25.8151 150.383 26.8607 148.989 26.8607C147.695 26.8607 147.072 26.0889 147.072 24.6948V17.1763H143.039V25.5412C143.039 28.3793 144.583 30.2963 147.52 30.2963Z" fill="#F18A8A"/>
<path d="M157.051 29.9227H161.109V22.7777C161.109 21.2591 161.856 20.1885 163.125 20.1885C164.345 20.1885 164.918 20.9852 164.918 22.3545V29.9227H168.976V22.7777C168.976 21.2591 169.698 20.1885 170.992 20.1885C172.212 20.1885 172.785 20.9852 172.785 22.3545V29.9227H176.843V21.6325C176.843 18.7695 175.399 16.8027 172.511 16.8027C170.868 16.8027 169.499 17.4998 168.503 19.0433H168.453C167.806 17.6741 166.536 16.8027 164.868 16.8027C163.026 16.8027 161.806 17.6741 161.009 18.9936H160.935V17.1762H157.051V29.9227Z" fill="#F18A8A"/>
<path fill-rule="evenodd" clip-rule="evenodd" d="M22.1292 42.3707C33.5871 42.3707 42.8756 33.0822 42.8756 21.6243C42.8756 10.1664 33.5871 0.87793 22.1292 0.87793C10.6713 0.87793 1.38281 10.1664 1.38281 21.6243C1.38281 33.0822 10.6713 42.3707 22.1292 42.3707ZM28.6014 10.5425C28.9164 9.42341 27.8304 8.76169 26.8386 9.46828L12.9936 19.3314C11.918 20.0977 12.0872 21.6243 13.2478 21.6243H16.8935V21.5961H23.999L18.2094 23.6389L15.6571 32.7062C15.342 33.8252 16.4279 34.4869 17.4198 33.7803L31.2648 23.9173C32.3404 23.151 32.1711 21.6243 31.0106 21.6243H25.4819L28.6014 10.5425Z" fill="#F15757"/>
</g>
<defs>
<clipPath id="clip0_9181_35696">
<rect width="176.344" height="42.5301" fill="white" transform="translate(0.675781 0.734863)"/>
</clipPath>
</defs>
</svg>
