<svg width="46" height="46" viewBox="0 0 46 46" fill="none" xmlns="http://www.w3.org/2000/svg">
<g clip-path="url(#clip0_8979_62003)">
<path d="M45.9141 31.1758C45.9141 28.9465 44.1004 27.1328 41.8711 27.1328C39.8661 27.1328 38.198 28.6003 37.8826 30.5174C34.7404 33.125 30.1346 33.125 26.9924 30.5174C26.677 28.6003 25.0089 27.1328 23.0039 27.1328C20.9989 27.1328 19.3308 28.6003 19.0154 30.5174C15.8732 33.125 11.2674 33.125 8.12524 30.5174C7.8098 28.6003 6.14176 27.1328 4.13672 27.1328C1.90743 27.1328 0.09375 28.9465 0.09375 31.1758C0.09375 32.9327 1.22048 34.4306 2.78906 34.987V43.3047H1.44141C0.697141 43.3047 0.09375 43.9081 0.09375 44.6523C0.09375 45.3966 0.697141 46 1.44141 46H6.83203C7.5763 46 8.17969 45.3966 8.17969 44.6523C8.17969 43.9081 7.5763 43.3047 6.83203 43.3047H5.48438V34.987C6.31866 34.691 7.02762 34.1289 7.50882 33.4027C9.30507 34.5578 11.399 35.1795 13.5703 35.1795C15.7417 35.1795 17.8356 34.5578 19.6318 33.4027C20.113 34.1289 20.822 34.6911 21.6562 34.987V43.3047H20.3086C19.5643 43.3047 18.9609 43.9081 18.9609 44.6523C18.9609 45.3966 19.5643 46 20.3086 46H25.6992C26.4435 46 27.0469 45.3966 27.0469 44.6523C27.0469 43.9081 26.4435 43.3047 25.6992 43.3047H24.3516V34.987C25.1859 34.691 25.8948 34.1289 26.376 33.4027C28.1723 34.5578 30.2662 35.1795 32.4375 35.1795C34.6088 35.1795 36.7028 34.5578 38.499 33.4027C38.9802 34.1289 39.6891 34.6911 40.5234 34.987V43.3047H39.1758C38.4315 43.3047 37.8281 43.9081 37.8281 44.6523C37.8281 45.3966 38.4315 46 39.1758 46H44.5664C45.3107 46 45.9141 45.3966 45.9141 44.6523C45.9141 43.9081 45.3107 43.3047 44.5664 43.3047H43.2188V34.987C44.7873 34.4306 45.9141 32.9327 45.9141 31.1758ZM4.13672 32.5234C3.39362 32.5234 2.78906 31.9189 2.78906 31.1758C2.78906 30.4327 3.39362 29.8281 4.13672 29.8281C4.87982 29.8281 5.48438 30.4327 5.48438 31.1758C5.48438 31.9189 4.87982 32.5234 4.13672 32.5234ZM23.0039 32.5234C22.2608 32.5234 21.6562 31.9189 21.6562 31.1758C21.6562 30.4327 22.2608 29.8281 23.0039 29.8281C23.747 29.8281 24.3516 30.4327 24.3516 31.1758C24.3516 31.9189 23.747 32.5234 23.0039 32.5234ZM41.8711 32.5234C41.128 32.5234 40.5234 31.9189 40.5234 31.1758C40.5234 30.4327 41.128 29.8281 41.8711 29.8281C42.6142 29.8281 43.2188 30.4327 43.2188 31.1758C43.2188 31.9189 42.6142 32.5234 41.8711 32.5234Z" fill="white"/>
<path d="M44.5664 0H31.9883C31.244 0 30.6406 0.603391 30.6406 1.34766V22.9102C30.6406 23.6544 31.244 24.2578 31.9883 24.2578H44.5664C45.3107 24.2578 45.9141 23.6544 45.9141 22.9102V1.34766C45.9141 0.603391 45.3107 0 44.5664 0ZM43.2188 21.5625H33.3359V2.69531H43.2188V21.5625Z" fill="white"/>
<path d="M37.3789 8.08594H39.1758C39.92 8.08594 40.5234 7.48255 40.5234 6.73828C40.5234 5.99402 39.92 5.39062 39.1758 5.39062H37.3789C36.6346 5.39062 36.0312 5.99402 36.0312 6.73828C36.0312 7.48255 36.6346 8.08594 37.3789 8.08594Z" fill="white"/>
<path d="M37.3789 13.4766H39.1758C39.92 13.4766 40.5234 12.8732 40.5234 12.1289C40.5234 11.3846 39.92 10.7812 39.1758 10.7812H37.3789C36.6346 10.7812 36.0312 11.3846 36.0312 12.1289C36.0312 12.8732 36.6346 13.4766 37.3789 13.4766Z" fill="white"/>
<path d="M37.3789 18.8672H39.1758C39.92 18.8672 40.5234 18.2638 40.5234 17.5195C40.5234 16.7753 39.92 16.1719 39.1758 16.1719H37.3789C36.6346 16.1719 36.0312 16.7753 36.0312 17.5195C36.0312 18.2638 36.6346 18.8672 37.3789 18.8672Z" fill="white"/>
<path d="M1.44141 24.2578H14.0195C14.7638 24.2578 15.3672 23.6544 15.3672 22.9102V1.34766C15.3672 0.603391 14.7638 0 14.0195 0H1.44141C0.697141 0 0.09375 0.603391 0.09375 1.34766V22.9102C0.09375 23.6544 0.697141 24.2578 1.44141 24.2578ZM2.78906 2.69531H12.6719V21.5625H2.78906V2.69531Z" fill="white"/>
<path d="M8.62891 5.39062H6.83203C6.08777 5.39062 5.48438 5.99402 5.48438 6.73828C5.48438 7.48255 6.08777 8.08594 6.83203 8.08594H8.62891C9.37317 8.08594 9.97656 7.48255 9.97656 6.73828C9.97656 5.99402 9.37317 5.39062 8.62891 5.39062Z" fill="white"/>
<path d="M8.62891 10.7812H6.83203C6.08777 10.7812 5.48438 11.3846 5.48438 12.1289C5.48438 12.8732 6.08777 13.4766 6.83203 13.4766H8.62891C9.37317 13.4766 9.97656 12.8732 9.97656 12.1289C9.97656 11.3846 9.37317 10.7812 8.62891 10.7812Z" fill="white"/>
<path d="M8.62891 16.1719H6.83203C6.08777 16.1719 5.48438 16.7753 5.48438 17.5195C5.48438 18.2638 6.08777 18.8672 6.83203 18.8672H8.62891C9.37317 18.8672 9.97656 18.2638 9.97656 17.5195C9.97656 16.7753 9.37317 16.1719 8.62891 16.1719Z" fill="white"/>
<path d="M19.4102 9.88281H26.5977C27.3419 9.88281 27.9453 9.27942 27.9453 8.53516V1.34766C27.9453 0.603391 27.3419 0 26.5977 0H19.4102C18.6659 0 18.0625 0.603391 18.0625 1.34766V8.53516C18.0625 9.27942 18.6659 9.88281 19.4102 9.88281ZM20.7578 2.69531H25.25V7.1875H20.7578V2.69531Z" fill="white"/>
<path d="M19.4102 22.4609H26.5977C27.3419 22.4609 27.9453 21.8575 27.9453 21.1133V13.9258C27.9453 13.1815 27.3419 12.5781 26.5977 12.5781H19.4102C18.6659 12.5781 18.0625 13.1815 18.0625 13.9258V21.1133C18.0625 21.8575 18.6659 22.4609 19.4102 22.4609ZM20.7578 15.2734H25.25V19.7656H20.7578V15.2734Z" fill="white"/>
</g>
<defs>
<clipPath id="clip0_8979_62003">
<rect width="46" height="46" fill="white"/>
</clipPath>
</defs>
</svg>
