<svg width="13" height="24" viewBox="0 0 13 24" fill="none" xmlns="http://www.w3.org/2000/svg">
<path d="M11.9333 13.4406L12.5862 9.18773H8.50512V6.42785C8.50512 5.26456 9.07501 4.12991 10.9029 4.12991H12.758V0.509319C12.758 0.509319 11.0748 0.222168 9.46498 0.222168C6.10436 0.222168 3.90777 2.2594 3.90777 5.94682V9.18846H0.171875V13.4414H3.90777V23.723H8.50512V13.4414L11.9333 13.4406Z" fill="black"/>
<path d="M11.9333 13.4406L12.5862 9.18773H8.50512V6.42785C8.50512 5.26456 9.07501 4.12991 10.9029 4.12991H12.758V0.509319C12.758 0.509319 11.0748 0.222168 9.46498 0.222168C6.10436 0.222168 3.90777 2.2594 3.90777 5.94682V9.18846H0.171875V13.4414H3.90777V23.723H8.50512V13.4414L11.9333 13.4406Z" fill="url(#paint0_linear_9988_28694)"/>
<defs>
<linearGradient id="paint0_linear_9988_28694" x1="0.692958" y1="-1.49143" x2="13.4888" y2="-0.829043" gradientUnits="userSpaceOnUse">
<stop stop-color="#0844FF"/>
<stop offset="1" stop-color="#4808FF"/>
</linearGradient>
</defs>
</svg>
