<svg width="179" height="53" viewBox="0 0 179 53" fill="none" xmlns="http://www.w3.org/2000/svg">
<path d="M171.865 52.3198H7.46447C3.8494 52.3198 0.886719 49.432 0.886719 45.9025V7.39874C0.886719 3.86923 3.8494 0.981445 7.46447 0.981445H171.865C175.48 0.981445 178.432 3.86923 178.432 7.39874V45.9025C178.432 49.432 175.48 52.3198 171.865 52.3198Z" fill="black"/>
<path d="M14.6057 10.6603C14.2206 11.0453 13.9961 11.6659 13.9961 12.4573V40.8432C13.9961 41.6454 14.2206 42.255 14.6057 42.6507L14.702 42.7363L31.002 26.832V26.4576L14.702 10.5642L14.6057 10.6603Z" fill="url(#paint0_linear_8778_49835)"/>
<path d="M36.4226 32.1371L31 26.8432V26.4578L36.4333 21.1638L36.5509 21.2281L42.9896 24.8002C44.8292 25.8163 44.8292 27.4847 42.9896 28.5008L36.5509 32.0729L36.4226 32.1371Z" fill="url(#paint1_linear_8778_49835)"/>
<path d="M36.5526 32.0735L31.0017 26.6511L14.6055 42.6515C15.2151 43.2719 16.2099 43.3466 17.3436 42.7262L36.5526 32.0735Z" fill="url(#paint2_linear_8778_49835)"/>
<path d="M36.5526 21.2285L17.3436 10.5758C16.2099 9.95548 15.2151 10.0299 14.6055 10.6609L31.0017 26.6509L36.5526 21.2285Z" fill="url(#paint3_linear_8778_49835)"/>
<path d="M63.2524 14.1273C63.2524 15.1969 62.9208 16.0524 62.279 16.6942C61.5304 17.4535 60.5571 17.8384 59.3699 17.8384C58.2362 17.8384 57.2628 17.4538 56.4713 16.6837C55.6692 15.9029 55.2734 14.9509 55.2734 13.8171C55.2734 12.6727 55.6692 11.7206 56.4713 10.9506C57.2628 10.1805 58.2362 9.78491 59.3699 9.78491C59.9368 9.78491 60.4714 9.90263 60.9955 10.1165C61.5089 10.3304 61.926 10.619 62.2255 10.972L61.541 11.6462C61.0062 11.0472 60.2897 10.7474 59.3699 10.7474C58.5463 10.7474 57.8297 11.0255 57.2201 11.5924C56.6104 12.1699 56.3109 12.908 56.3109 13.8171C56.3109 14.7263 56.6104 15.4643 57.2201 16.0419C57.8297 16.598 58.5463 16.8869 59.3699 16.8869C60.2469 16.8869 60.9955 16.5978 61.5731 16.0309C61.9581 15.6566 62.1827 15.1325 62.2362 14.4694H59.3699V13.5393H63.1881C63.2416 13.7425 63.2524 13.9348 63.2524 14.1273Z" fill="white" stroke="white" stroke-width="0.157964" stroke-miterlimit="10"/>
<path d="M69.306 10.9076H65.7231V13.3465H68.9531V14.2771H65.7231V16.7155H69.306V17.6565H64.707V9.96655H69.306V10.9076Z" fill="white" stroke="white" stroke-width="0.157964" stroke-miterlimit="10"/>
<path d="M73.5944 17.6565H72.5783V10.9076H70.375V9.96655H75.7977V10.9076H73.5944V17.6565Z" fill="white" stroke="white" stroke-width="0.157964" stroke-miterlimit="10"/>
<path d="M79.7188 17.6565V9.96655H80.7349V17.6565H79.7188Z" fill="white" stroke="white" stroke-width="0.157964" stroke-miterlimit="10"/>
<path d="M85.2272 17.6565H84.2219V10.9076H82.0078V9.96655H87.4412V10.9076H85.2272V17.6565Z" fill="white" stroke="white" stroke-width="0.157964" stroke-miterlimit="10"/>
<path d="M97.6953 16.6727C96.9252 17.4535 95.952 17.8384 94.8075 17.8384C93.6524 17.8384 92.6897 17.4535 91.909 16.6727C91.1389 15.892 90.7539 14.9402 90.7539 13.8171C90.7539 12.6834 91.1389 11.7316 91.909 10.9615C92.6897 10.1807 93.6524 9.78491 94.8075 9.78491C95.952 9.78491 96.9145 10.1807 97.6953 10.9615C98.476 11.7423 98.861 12.6941 98.861 13.8171C98.861 14.9402 98.476 15.892 97.6953 16.6727ZM92.6577 16.0309C93.246 16.5978 93.9626 16.8869 94.8075 16.8869C95.6525 16.8869 96.3691 16.5978 96.9466 16.0309C97.5349 15.4534 97.8236 14.7156 97.8236 13.8171C97.8236 12.9187 97.5349 12.1809 96.9466 11.6034C96.3691 11.0258 95.6525 10.737 94.8075 10.737C93.9626 10.737 93.246 11.0258 92.6577 11.6034C92.0802 12.1809 91.7806 12.9187 91.7806 13.8171C91.7806 14.7156 92.0802 15.4534 92.6577 16.0309Z" fill="white" stroke="white" stroke-width="0.157964" stroke-miterlimit="10"/>
<path d="M100.281 17.6565V9.96655H101.522L105.351 15.9561H105.394L105.351 14.4693V9.96655H106.367V17.6565H105.308L101.297 11.3787H101.244L101.297 12.865V17.6565H100.281Z" fill="white" stroke="white" stroke-width="0.157964" stroke-miterlimit="10"/>
<path d="M90.5007 28.8971C87.4097 28.8971 84.8856 31.1965 84.8856 34.3623C84.8856 37.4961 87.4097 39.8172 90.5007 39.8172C93.5917 39.8172 96.1159 37.4961 96.1159 34.3623C96.1159 31.1965 93.5917 28.8971 90.5007 28.8971ZM90.5007 37.6671C88.8002 37.6671 87.3455 36.2982 87.3455 34.3623C87.3455 32.3944 88.8002 31.0466 90.5007 31.0466C92.1906 31.0466 93.6559 32.3944 93.6559 34.3623C93.6559 36.2982 92.1906 37.6671 90.5007 37.6671ZM78.2543 28.8971C75.1633 28.8971 72.6392 31.1965 72.6392 34.3623C72.6392 37.4961 75.1633 39.8172 78.2543 39.8172C81.3453 39.8172 83.8695 37.4961 83.8695 34.3623C83.8695 31.1965 81.3453 28.8971 78.2543 28.8971ZM78.2543 37.6671C76.5537 37.6671 75.0992 36.2982 75.0992 34.3623C75.0992 32.3944 76.5537 31.0466 78.2543 31.0466C79.9442 31.0466 81.4096 32.3944 81.4096 34.3623C81.4096 36.2982 79.9442 37.6671 78.2543 37.6671ZM63.6871 30.5761V32.8865H69.3557C69.1953 34.1913 68.746 35.1432 68.0722 35.8063C67.2379 36.6085 65.9545 37.4963 63.6871 37.4963C60.1896 37.4963 57.4516 34.7473 57.4516 31.3354C57.4516 27.9236 60.1896 25.1751 63.6871 25.1751C65.5695 25.1751 66.9492 25.8915 67.9653 26.8327L69.6338 25.1965C68.2113 23.8703 66.3288 22.8542 63.6871 22.8542C58.8955 22.8542 54.8633 26.6615 54.8633 31.3354C54.8633 36.0094 58.8955 39.8172 63.6871 39.8172C66.2754 39.8172 68.2113 38.9829 69.7407 37.4321C71.313 35.9026 71.805 33.7528 71.805 32.0201C71.805 31.4853 71.7514 30.9825 71.6766 30.5761H63.6871ZM123.272 32.3731C122.812 31.1538 121.379 28.8971 118.48 28.8971C115.603 28.8971 113.207 31.1109 113.207 34.3623C113.207 37.4106 115.582 39.8172 118.758 39.8172C121.325 39.8172 122.812 38.2874 123.421 37.3997L121.507 36.1594C120.876 37.0685 120.01 37.6671 118.758 37.6671C117.507 37.6671 116.619 37.1111 116.042 36.0095L123.528 32.9936L123.272 32.3731ZM115.646 34.1911C115.582 32.084 117.314 31.0038 118.566 31.0038C119.539 31.0038 120.362 31.4852 120.641 32.159L115.646 34.1911ZM109.56 39.4855H112.02V23.4423H109.56V39.4855ZM105.528 30.1165H105.453C104.897 29.4748 103.849 28.8971 102.512 28.8971C99.7095 28.8971 97.1426 31.3037 97.1426 34.3733C97.1426 37.4322 99.7095 39.8172 102.512 39.8172C103.849 39.8172 104.897 39.2287 105.453 38.5763H105.528V39.3571C105.528 41.4427 104.394 42.5657 102.544 42.5657C101.047 42.5657 100.116 41.507 99.731 40.6193L97.5919 41.4857C98.2015 42.9403 99.8379 44.7158 102.544 44.7158C105.432 44.7158 107.86 43.0579 107.86 39.0364V29.2287H105.528V30.1165ZM102.715 37.6671C101.025 37.6671 99.6026 36.2771 99.6026 34.3733C99.6026 32.4481 101.025 31.0466 102.715 31.0466C104.394 31.0466 105.71 32.4481 105.71 34.3733C105.71 36.2771 104.394 37.6671 102.715 37.6671ZM134.78 23.4423H128.897V39.4855H131.357V33.3999H134.78C137.507 33.3999 140.181 31.4855 140.181 28.4266C140.181 25.3676 137.497 23.4423 134.78 23.4423ZM134.844 31.1751H131.357V25.667H134.844C136.673 25.667 137.721 27.1538 137.721 28.4266C137.721 29.6672 136.673 31.1751 134.844 31.1751ZM150.01 28.8647C148.235 28.8647 146.395 29.6351 145.636 31.325L147.818 32.2128C148.278 31.3251 149.144 31.0362 150.053 31.0362C151.326 31.0362 152.62 31.7845 152.631 33.1001V33.2714C152.192 33.0147 151.24 32.651 150.075 32.651C147.732 32.651 145.337 33.9025 145.337 36.2555C145.337 38.4053 147.262 39.7848 149.422 39.7848C151.069 39.7848 151.978 39.0685 152.556 38.2128H152.631V39.4537H155.005V33.3038C155.005 30.4588 152.823 28.8647 150.01 28.8647ZM149.711 37.6566C148.909 37.6566 147.796 37.2716 147.796 36.2983C147.796 35.0576 149.187 34.5869 150.396 34.5869C151.476 34.5869 151.978 34.8115 152.631 35.1217C152.438 36.6084 151.133 37.6566 149.711 37.6566ZM163.637 29.2178L160.813 36.1698H160.727L157.818 29.2178H155.176L159.551 38.9403L157.048 44.3413H159.615L166.364 29.2178H163.637ZM141.529 39.4855H143.989V23.4423H141.529V39.4855Z" fill="white"/>
<defs>
<linearGradient id="paint0_linear_8778_49835" x1="29.5581" y1="41.1427" x2="8.01728" y2="19.0779" gradientUnits="userSpaceOnUse">
<stop stop-color="#00A0FF"/>
<stop offset="0.0066" stop-color="#00A1FF"/>
<stop offset="0.2601" stop-color="#00BEFF"/>
<stop offset="0.5122" stop-color="#00D2FF"/>
<stop offset="0.7604" stop-color="#00DFFF"/>
<stop offset="1" stop-color="#00E3FF"/>
</linearGradient>
<linearGradient id="paint1_linear_8778_49835" x1="45.3854" y1="26.6505" x2="13.5557" y2="26.6505" gradientUnits="userSpaceOnUse">
<stop stop-color="#FFE000"/>
<stop offset="0.4087" stop-color="#FFBD00"/>
<stop offset="0.7754" stop-color="#FFA500"/>
<stop offset="1" stop-color="#FF9C00"/>
</linearGradient>
<linearGradient id="paint2_linear_8778_49835" x1="33.5365" y1="23.6992" x2="4.33808" y2="-6.21612" gradientUnits="userSpaceOnUse">
<stop stop-color="#FF3A44"/>
<stop offset="1" stop-color="#C31162"/>
</linearGradient>
<linearGradient id="paint3_linear_8778_49835" x1="10.477" y1="52.0955" x2="23.5255" y2="38.7261" gradientUnits="userSpaceOnUse">
<stop stop-color="#32A071"/>
<stop offset="0.0685" stop-color="#2DA771"/>
<stop offset="0.4762" stop-color="#15CF74"/>
<stop offset="0.8009" stop-color="#06E775"/>
<stop offset="1" stop-color="#00F076"/>
</linearGradient>
</defs>
</svg>
