<svg width="22" height="21" viewBox="0 0 22 21" fill="none" xmlns="http://www.w3.org/2000/svg">
<path d="M5.29463 20.7859H1.03143V7.05699H5.29463V20.7859ZM3.16046 5.18427C1.79741 5.18427 0.691406 4.05476 0.691406 2.69171C0.691406 2.03688 0.951538 1.40886 1.41458 0.945826C1.87761 0.482788 2.50563 0.222656 3.16046 0.222656C3.81529 0.222656 4.44331 0.482788 4.90635 0.945826C5.36938 1.40886 5.62951 2.03688 5.62951 2.69171C5.62951 4.05476 4.52351 5.18427 3.16046 5.18427ZM21.2502 20.7859H16.9966V14.1028C16.9966 12.5099 16.9643 10.4675 14.7801 10.4675C12.5637 10.4675 12.2237 12.1978 12.2237 13.9883V20.7859H7.96491V7.05699H12.0533V8.92971H12.1128C12.682 7.85087 14.0722 6.71255 16.1461 6.71255C20.4607 6.71255 21.2539 9.55395 21.2539 13.2443V20.7859H21.2502Z" fill="black"/>
<path d="M5.29463 20.7859H1.03143V7.05699H5.29463V20.7859ZM3.16046 5.18427C1.79741 5.18427 0.691406 4.05476 0.691406 2.69171C0.691406 2.03688 0.951538 1.40886 1.41458 0.945826C1.87761 0.482788 2.50563 0.222656 3.16046 0.222656C3.81529 0.222656 4.44331 0.482788 4.90635 0.945826C5.36938 1.40886 5.62951 2.03688 5.62951 2.69171C5.62951 4.05476 4.52351 5.18427 3.16046 5.18427ZM21.2502 20.7859H16.9966V14.1028C16.9966 12.5099 16.9643 10.4675 14.7801 10.4675C12.5637 10.4675 12.2237 12.1978 12.2237 13.9883V20.7859H7.96491V7.05699H12.0533V8.92971H12.1128C12.682 7.85087 14.0722 6.71255 16.1461 6.71255C20.4607 6.71255 21.2539 9.55395 21.2539 13.2443V20.7859H21.2502Z" fill="url(#paint0_linear_9988_28691)"/>
<defs>
<linearGradient id="paint0_linear_9988_28691" x1="1.54272" y1="-1.27675" x2="22.3097" y2="0.730475" gradientUnits="userSpaceOnUse">
<stop stop-color="#0844FF"/>
<stop offset="1" stop-color="#4808FF"/>
</linearGradient>
</defs>
</svg>
