<svg width="28" height="28" viewBox="0 0 28 28" fill="none" xmlns="http://www.w3.org/2000/svg">
<path d="M12.5565 26.3396C12.5565 27.0854 13.2046 27.769 13.9948 27.7601C14.7761 27.7601 15.4331 27.0854 15.4331 26.3396L15.4242 15.4637L26.309 15.4637C27.0725 15.4637 27.7295 14.8067 27.7295 14.0254C27.7118 13.2441 27.0725 12.5871 26.3001 12.596L15.4242 12.5871L15.4242 1.72007C15.4331 0.947664 14.7761 0.29067 13.9948 0.290669C13.2135 0.308426 12.5565 0.947664 12.5565 1.7112L12.5565 12.596L1.68061 12.5871C0.934831 12.5871 0.242325 13.2441 0.260081 14.0254C0.260081 14.8067 0.934831 15.4637 1.68061 15.4637L12.5565 15.4548L12.5565 26.3396Z" fill="white"/>
</svg>
