<svg width="62" height="63" viewBox="0 0 62 63" fill="none" xmlns="http://www.w3.org/2000/svg">
<path d="M50.8465 36.7487C51.319 37.1516 51.3755 37.8623 50.9727 38.3347C50.5699 38.8072 49.8592 38.8637 49.3867 38.4609L47.7065 37.0283L49.1391 35.3481C49.1481 35.3375 49.1567 35.3261 49.1656 35.3155L50.8465 36.7487Z" fill="white" stroke="black"/>
<path d="M34.3899 40.2766C37.4185 39.1365 39.7796 36.3668 40.4268 33.1961L40.4282 33.196L40.6121 32.294L46.2962 37.1404L37.1318 47.8889C34.3997 51.0933 29.5868 51.4761 26.3824 48.7441L21.9452 44.9608L34.3899 40.2766ZM47.5224 23.9499C50.4578 26.4527 51.0237 30.699 48.9979 33.8588L41.583 27.5368L43.0853 20.1666L47.5224 23.9499Z" fill="white" stroke="black"/>
<path d="M14.0642 20.9318C14.4978 18.8118 16.0881 16.9455 18.1128 16.1819L18.1135 16.1825L37.377 8.93445L37.3776 8.93371C38.5256 8.50031 39.6822 8.72225 40.4831 9.405C41.2323 10.0438 41.6335 11.057 41.4785 12.1736L41.4396 12.3983L38.83 25.1884L38.3061 24.7417C37.9311 24.4221 37.4577 24.2435 36.9684 24.2351L36.7576 24.2415L26.0688 25.0918L26.0681 25.0925C24.9723 25.1785 24.1351 26.0853 24.113 27.1614L24.1191 27.377C24.2101 28.5465 25.2372 29.4222 26.4064 29.3272L26.4056 29.3266L36.2183 28.5467L37.8598 29.9463L37.3261 32.5636C36.921 34.5526 35.498 36.317 33.6517 37.1576L33.2768 37.3128L14.0156 44.5628C12.8651 44.9954 11.7078 44.7729 10.9087 44.0916C10.1579 43.4514 9.75802 42.4383 9.91401 41.3237L9.9523 41.0997L9.95293 41.0989L14.0642 20.9318Z" fill="white" stroke="black"/>
</svg>
