<svg width="46" height="46" viewBox="0 0 46 46" fill="none" xmlns="http://www.w3.org/2000/svg">
<g clip-path="url(#clip0_8979_62023)">
<path d="M44.5611 22.6935C43.023 21.4258 40.592 21.3171 38.9965 23.0295L35.0356 27.2815C34.5234 25.6357 32.9863 24.4372 31.1743 24.4372H24.1059C23.5695 24.4372 23.3899 24.2324 22.4582 23.5146C18.906 20.4179 13.5705 20.4278 10.0291 23.5443L7.43098 25.8315C6.2631 25.2134 4.89936 25.1981 3.7251 25.7848L0.745165 27.2743C0.0794225 27.6076 -0.190019 28.417 0.142313 29.0828L8.2278 45.2537C8.56112 45.9194 9.37052 46.1889 10.0363 45.8565L13.0162 44.3661C14.4851 43.6322 15.3025 42.1336 15.2495 40.6082H31.1743C34.1272 40.6082 36.9491 39.1977 38.7207 36.835L45.19 28.2088C46.445 26.5368 46.2464 24.085 44.5611 22.6935ZM11.8105 41.9557L10.0362 42.8433L3.15549 29.0828L4.93072 28.1952C5.59646 27.8628 6.40496 28.1314 6.73828 28.7981L12.4134 40.1482C12.7458 40.8139 12.4762 41.6224 11.8105 41.9557ZM43.0338 26.5916L36.5646 35.2179C35.2988 36.9059 33.2837 37.913 31.1743 37.913H14.309L9.25912 27.8125L11.8096 25.5675C14.3475 23.3349 18.1747 23.3349 20.7126 25.5675C22.2075 26.8836 23.1373 27.1325 24.1058 27.1325H31.1743C31.9173 27.1325 32.5218 27.7371 32.5218 28.48C32.5218 29.2229 31.9172 29.8276 31.1743 29.8276H24.2918C23.5479 29.8276 22.9442 30.4313 22.9442 31.1752C22.9442 31.919 23.548 32.5227 24.2918 32.5227H32.0772C33.1956 32.5227 34.2738 32.0537 35.0356 31.2353L40.9685 24.8667C41.5111 24.2845 42.343 24.333 42.8533 24.7795C43.3869 25.2466 43.4445 26.0453 43.0338 26.5916Z" fill="white"/>
<path d="M28.332 9.19703C29.2546 8.2295 29.8233 6.92146 29.8233 5.48127C29.8233 2.51481 27.4265 0.00115967 24.4331 0.00115967C21.4621 0.00115967 18.9529 2.51032 18.9529 5.48127C18.9529 6.87735 19.5001 8.19527 20.4937 9.20781C18.0294 10.5895 16.2578 13.2415 16.2578 16.3517V17.6993C16.2578 18.4431 16.8616 19.0469 17.6054 19.0469H31.171C31.9148 19.0469 32.5185 18.4431 32.5185 17.6993V16.3517C32.5185 13.3026 30.8413 10.6093 28.332 9.19703ZM24.4331 2.69638C25.8938 2.69638 27.1282 3.97207 27.1282 5.48136C27.1282 6.96728 25.919 8.17649 24.4331 8.17649C22.9238 8.17649 21.6481 6.94213 21.6481 5.48136C21.6481 3.99813 22.9498 2.69638 24.4331 2.69638ZM18.9529 16.3517C18.9529 13.3808 21.4621 10.8716 24.4331 10.8716C27.4049 10.8716 29.8233 13.3296 29.8233 16.3517H18.9529Z" fill="white"/>
</g>
<defs>
<clipPath id="clip0_8979_62023">
<rect width="46" height="46" fill="white"/>
</clipPath>
</defs>
</svg>
