<svg width="62" height="62" viewBox="0 0 62 62" fill="none" xmlns="http://www.w3.org/2000/svg">
<path d="M7.53948 22.899L30.9662 49.1984C31.1764 49.4343 31.462 49.5888 31.7734 49.6356C32.21 49.6997 42.2997 51.0464 53.3129 41.8663L28.1531 13.6213C18.1284 21.9233 8.83594 20.6833 8.74126 20.6687C8.18007 20.5887 7.6279 20.8673 7.36042 21.3664C7.09306 21.8636 7.16304 22.4764 7.53948 22.899Z" fill="white"/>
<path d="M58.4812 35.5135L53.999 30.4817L55.0054 29.5853C55.5689 29.0833 55.6173 28.246 55.1153 27.6825C54.6133 27.1189 53.7761 27.0705 53.2125 27.5725L52.2062 28.469L47.6642 23.3701L48.6706 22.4737C49.2342 21.9717 49.2825 21.1345 48.7805 20.5709C48.2785 20.0073 47.4413 19.959 46.8777 20.461L45.8714 21.3574L41.3892 16.3256L42.3956 15.4292C42.9591 14.9272 43.0075 14.09 42.5055 13.5264C42.0035 12.9629 41.1663 12.9145 40.6027 13.4165L39.5964 14.3129L35.1142 9.28115C34.6122 8.71759 33.775 8.66923 33.2114 9.17123L30.1923 11.8605L55.3522 40.1055L58.3713 37.4163C58.9348 36.9142 58.9832 36.077 58.4812 35.5135Z" fill="white"/>
<path d="M31.3792 52.3008C30.4375 52.1596 29.5787 51.6943 28.9511 50.9897L10.0662 29.7892L7.04716 32.4785C6.49091 32.9739 6.44175 33.825 6.93723 34.3812L30.3042 60.6136C30.7997 61.1698 31.6508 61.219 32.207 60.7235L43.488 50.6747C36.9995 52.9746 32.1735 52.4177 31.3792 52.3008Z" fill="white"/>
</svg>
