<svg width="53" height="54" viewBox="0 0 53 54" fill="none" xmlns="http://www.w3.org/2000/svg">
<g clip-path="url(#clip0_8778_45588)">
<path d="M12.7666 22.7566L15.6133 23.9673C14.9853 24.6383 14.4621 25.4282 14.0821 26.3218L9.50636 37.0806C9.34792 37.4531 9.26068 37.8383 9.23721 38.2211L4.531 36.2195C2.773 35.4719 1.95111 33.4334 2.69876 31.6754L5.19319 25.8103C6.43918 22.8804 9.83666 21.5105 12.7666 22.7566Z" fill="white"/>
<path d="M35.4715 35.4174C35.8515 34.5238 36.0576 33.5991 36.1053 32.6813L38.952 33.892C41.8819 35.1381 43.2518 38.5355 42.0057 41.4655L39.5113 47.3306C38.7637 49.0885 36.7252 49.9105 34.9672 49.1629L30.2609 47.1613C30.5204 46.8787 30.7373 46.5488 30.8958 46.1762L35.4715 35.4174Z" fill="white"/>
<path d="M23.78 24.1715L30.2879 26.9393C33.2179 28.1854 34.5878 31.5829 33.3417 34.5128L28.766 45.2717C28.5164 45.8585 27.8382 46.132 27.2513 45.8824L12.2415 39.4988C11.6546 39.2492 11.3812 38.571 11.6308 37.9841L16.2065 27.2253C17.4526 24.2953 20.8501 22.9254 23.78 24.1715Z" fill="white"/>
<path d="M33.0316 11.4673C36.5552 12.9659 38.2027 17.0517 36.7041 20.5754C35.6876 22.9655 33.4806 24.4919 31.0663 24.7593C29.9212 24.8861 28.7296 24.7301 27.596 24.2479C26.4623 23.7658 25.5234 23.0157 24.8204 22.1029C23.3383 20.1784 22.907 17.5299 23.9234 15.1399C25.422 11.6162 29.5079 9.96867 33.0316 11.4673Z" fill="white"/>
<path d="M41.717 22.1952C44.3522 23.316 45.5843 26.3716 44.4635 29.0069C43.3428 31.6421 40.2871 32.8742 37.6519 31.7534C36.9834 31.4691 36.4058 31.06 35.9334 30.5651C35.1167 29.7095 34.6164 28.597 34.5122 27.4257C34.4391 26.6036 34.5604 25.7528 34.9053 24.9418C36.0261 22.3066 39.0817 21.0745 41.717 22.1952Z" fill="white"/>
<path d="M19.2756 12.6508C21.9108 13.7716 23.1429 16.8272 22.0221 19.4625C21.6772 20.2736 21.1485 20.9511 20.5056 21.4686C19.5896 22.2061 18.4413 22.6174 17.2585 22.6226C16.5744 22.6256 15.879 22.4933 15.2105 22.209C12.5752 21.0882 11.3432 18.0326 12.4639 15.3974C13.5847 12.7621 16.6403 11.53 19.2756 12.6508Z" fill="white"/>
</g>
<defs>
<clipPath id="clip0_8778_45588">
<rect width="40" height="40" fill="white" transform="matrix(-0.920232 -0.391374 -0.391374 0.920232 52.6211 16.502)"/>
</clipPath>
</defs>
</svg>
