<svg width="40" height="40" viewBox="0 0 40 40" fill="none" xmlns="http://www.w3.org/2000/svg">
<path d="M32.5028 11.4648C32.5028 11.3473 32.4885 11.2291 32.4587 11.1126C31.5258 7.44873 29.0263 4.45574 25.7148 2.81015V5.71429C25.7148 6.50321 25.0759 7.14286 24.2863 7.14286C23.4967 7.14286 22.8577 6.50321 22.8577 5.71429V1.82966V1.42857C22.8577 0.639561 22.2181 0 21.4291 0H18.572C17.783 0 17.1434 0.639561 17.1434 1.42857V1.82949V5.71429C17.1434 6.50321 16.5038 7.14286 15.7148 7.14286C14.9259 7.14286 14.2863 6.50321 14.2863 5.71429V2.81015C10.9742 4.45565 8.47459 7.44873 7.54171 11.1126C7.51207 11.2292 7.50152 11.347 7.50701 11.4639C6.49139 11.6321 5.71484 12.5081 5.71484 13.5714C5.71484 14.7549 6.67423 15.7143 7.8577 15.7143H32.1434C33.3269 15.7143 34.2863 14.7549 34.2863 13.5714C34.2863 12.5111 33.5143 11.6364 32.5028 11.4648Z" fill="white"/>
<path d="M30 18.5715H10V20.0001C10 22.7273 11.0999 25.2006 12.8763 27.0064C12.8718 27.0525 12.8571 27.0961 12.8571 27.143V29.548L19.9644 32.7066L27.1429 29.1171V27.143C27.1429 27.096 27.1282 27.0523 27.1237 27.0062C28.9 25.2003 30 22.7272 30 20.0001V18.5715Z" fill="white"/>
<path d="M11.4297 39.9998H28.5725V31.5972L20.6401 35.5634C20.4392 35.6639 20.2201 35.7141 20.0011 35.7141C19.8037 35.7141 19.6056 35.6729 19.4208 35.5906L11.4297 32.0391V39.9998Z" fill="white"/>
<path d="M8.57145 31.5886C5.16952 32.6307 2.21621 34.814 0.239975 37.779C-0.0522959 38.217 -0.0795002 38.7807 0.168826 39.2452C0.417849 39.7098 0.901945 40 1.42859 40H8.57145V31.5886Z" fill="white"/>
<path d="M39.7612 37.7791C37.7851 34.8142 34.832 32.631 31.4297 31.5889V40H38.5725C39.0999 40 39.584 39.7099 39.8323 39.2453C40.0806 38.7807 40.0527 38.2171 39.7612 37.7791Z" fill="white"/>
</svg>
