<svg width="163" height="44" viewBox="0 0 163 44" fill="none" xmlns="http://www.w3.org/2000/svg">
<g clip-path="url(#clip0_8613_34511)">
<path fill-rule="evenodd" clip-rule="evenodd" d="M43.7736 9.89917C43.8129 9.77973 43.8478 9.67382 43.8235 9.54443L43.8217 9.54536C41.8814 9.86209 39.9272 10.3023 38.0231 10.8058C34.2754 11.7959 27.0279 13.9284 24.5907 16.9628C22.1212 20.038 22.2595 24.6215 22.3765 28.4991C22.3898 28.9385 22.4028 29.3689 22.4117 29.7869C22.4222 30.287 22.4258 30.7893 22.4295 31.2923C22.4393 32.652 22.4491 34.0165 22.5956 35.3542C22.7043 35.4303 23.2272 35.0997 23.3368 35.0207C31.4834 29.1832 37.8568 21.1573 42.5306 12.3197C42.6113 12.1674 42.7203 11.9709 42.8408 11.7536C43.1905 11.1232 43.637 10.3182 43.7696 9.91131L43.7736 9.89917ZM19.2944 35.3536L19.6956 35.4474H19.6965C19.5588 34.4576 19.5497 33.4486 19.5406 32.4409C19.5362 31.9603 19.5319 31.4799 19.5136 31.0021C19.4995 30.633 19.4874 30.2429 19.4748 29.8364C19.3516 25.8587 19.1798 20.3139 16.6584 17.4917C14.4023 14.9672 8.24804 13.7114 4.95262 13.2071C3.36622 12.9637 1.75938 12.7724 0.152542 12.8179C0.0267515 12.9295 1.42004 15.4211 1.69344 15.9101C1.7067 15.9338 1.71732 15.9528 1.72501 15.9666C6.04026 23.6943 12.0961 30.2396 19.2944 35.3536Z" fill="url(#paint0_linear_8613_34511)"/>
</g>
<path d="M58.5074 32V11.2941H65.7463C67.1887 11.2941 68.3784 11.5435 69.3153 12.0423C70.2521 12.5343 70.9498 13.1982 71.4081 14.034C71.8664 14.8631 72.0956 15.7831 72.0956 16.7941C72.0956 17.6838 71.9372 18.4185 71.6204 18.9982C71.3104 19.5778 70.8992 20.0362 70.3869 20.3732C69.8814 20.7102 69.3321 20.9596 68.739 21.1213V21.3235C69.3725 21.364 70.0095 21.5864 70.6498 21.9908C71.2901 22.3952 71.826 22.9749 72.2574 23.7298C72.6887 24.4847 72.9044 25.4081 72.9044 26.5C72.9044 27.538 72.6685 28.4715 72.1967 29.3006C71.7249 30.1296 70.9801 30.7868 69.9623 31.2721C68.9445 31.7574 67.6201 32 65.989 32H58.5074ZM61.0147 29.7757H65.989C67.6268 29.7757 68.7895 29.4589 69.477 28.8254C70.1713 28.185 70.5184 27.4099 70.5184 26.5C70.5184 25.799 70.3398 25.152 69.9825 24.5588C69.6253 23.9589 69.1164 23.4804 68.4559 23.1232C67.7953 22.7592 67.0135 22.5772 66.1103 22.5772H61.0147V29.7757ZM61.0147 20.3934H65.6654C66.4203 20.3934 67.1011 20.2451 67.7077 19.9485C68.3211 19.652 68.8064 19.2341 69.1636 18.6949C69.5276 18.1556 69.7096 17.5221 69.7096 16.7941C69.7096 15.8842 69.3928 15.1124 68.7592 14.4789C68.1256 13.8385 67.1213 13.5184 65.7463 13.5184H61.0147V20.3934ZM79.0869 11.2941V32H76.7008V11.2941H79.0869ZM93.2438 25.6507V16.4706H95.6298V32H93.2438V29.3713H93.082C92.7181 30.1599 92.1519 30.8306 91.3835 31.3833C90.6151 31.9292 89.6445 32.2022 88.4717 32.2022C87.5011 32.2022 86.6384 31.9899 85.8835 31.5653C85.1286 31.1339 84.5355 30.4868 84.1041 29.6241C83.6727 28.7546 83.457 27.6593 83.457 26.3382V16.4706H85.8431V26.1765C85.8431 27.3088 86.1599 28.212 86.7934 28.886C87.4337 29.56 88.2493 29.8971 89.2401 29.8971C89.8333 29.8971 90.4365 29.7454 91.0499 29.4421C91.67 29.1388 92.189 28.6737 92.6068 28.0469C93.0315 27.42 93.2438 26.6213 93.2438 25.6507ZM106.915 16.4706V18.4926H98.5441V16.4706H106.915ZM101.051 32V14.3272C101.051 13.4375 101.26 12.6961 101.678 12.1029C102.096 11.5098 102.639 11.0649 103.306 10.7684C103.973 10.4718 104.678 10.3235 105.419 10.3235C106.006 10.3235 106.484 10.3707 106.855 10.4651C107.225 10.5594 107.502 10.6471 107.684 10.7279L106.996 12.7904C106.875 12.75 106.706 12.6994 106.491 12.6388C106.282 12.5781 106.006 12.5478 105.662 12.5478C104.873 12.5478 104.304 12.7466 103.953 13.1443C103.609 13.542 103.438 14.125 103.438 14.8934V32H101.051ZM120.046 25.6507V16.4706H122.432V32H120.046V29.3713H119.884C119.52 30.1599 118.954 30.8306 118.186 31.3833C117.418 31.9292 116.447 32.2022 115.274 32.2022C114.304 32.2022 113.441 31.9899 112.686 31.5653C111.931 31.1339 111.338 30.4868 110.906 29.6241C110.475 28.7546 110.259 27.6593 110.259 26.3382V16.4706H112.645V26.1765C112.645 27.3088 112.962 28.212 113.596 28.886C114.236 29.56 115.052 29.8971 116.043 29.8971C116.636 29.8971 117.239 29.7454 117.852 29.4421C118.472 29.1388 118.991 28.6737 119.409 28.0469C119.834 27.42 120.046 26.6213 120.046 25.6507ZM133.556 16.4706V18.4926H125.508V16.4706H133.556ZM127.854 12.75H130.24V27.5515C130.24 28.2255 130.338 28.731 130.533 29.068C130.735 29.3983 130.991 29.6207 131.301 29.7353C131.618 29.8431 131.952 29.8971 132.302 29.8971C132.565 29.8971 132.781 29.8836 132.949 29.8566C133.118 29.8229 133.253 29.796 133.354 29.7757L133.839 31.9191C133.677 31.9798 133.452 32.0404 133.162 32.1011C132.872 32.1685 132.505 32.2022 132.06 32.2022C131.386 32.2022 130.725 32.0573 130.078 31.7675C129.438 31.4776 128.905 31.0362 128.481 30.443C128.063 29.8499 127.854 29.1017 127.854 28.1985V12.75ZM146.932 25.6507V16.4706H149.318V32H146.932V29.3713H146.77C146.406 30.1599 145.84 30.8306 145.072 31.3833C144.303 31.9292 143.333 32.2022 142.16 32.2022C141.189 32.2022 140.327 31.9899 139.572 31.5653C138.817 31.1339 138.224 30.4868 137.792 29.6241C137.361 28.7546 137.145 27.6593 137.145 26.3382V16.4706H139.531V26.1765C139.531 27.3088 139.848 28.212 140.482 28.886C141.122 29.56 141.937 29.8971 142.928 29.8971C143.521 29.8971 144.125 29.7454 144.738 29.4421C145.358 29.1388 145.877 28.6737 146.295 28.0469C146.72 27.42 146.932 26.6213 146.932 25.6507ZM153.688 32V16.4706H155.993V18.8162H156.155C156.438 18.0478 156.95 17.4243 157.692 16.9458C158.433 16.4672 159.269 16.2279 160.199 16.2279C160.374 16.2279 160.594 16.2313 160.856 16.2381C161.119 16.2448 161.318 16.2549 161.453 16.2684V18.6949C161.372 18.6746 161.187 18.6443 160.897 18.6039C160.614 18.5567 160.314 18.5331 159.997 18.5331C159.242 18.5331 158.568 18.6915 157.975 19.0083C157.389 19.3183 156.923 19.7497 156.58 20.3024C156.243 20.8483 156.074 21.4718 156.074 22.1728V32H153.688Z" fill="white"/>
<defs>
<linearGradient id="paint0_linear_8613_34511" x1="1.95323" y1="7.65567" x2="45.3341" y2="14.7276" gradientUnits="userSpaceOnUse">
<stop stop-color="#0844FF"/>
<stop offset="1" stop-color="#4808FF"/>
</linearGradient>
<clipPath id="clip0_8613_34511">
<rect width="43.7469" height="25.9138" fill="white" transform="translate(0.144531 9.54443)"/>
</clipPath>
</defs>
</svg>
