<svg width="170" height="42" viewBox="0 0 170 42" fill="none" xmlns="http://www.w3.org/2000/svg">
<g clip-path="url(#clip0_9181_35656)">
<path d="M1.8125 31.0936L1.8125 10.4404L12.139 16.1774V25.4139L20.4004 30.0609L28.6616 25.4139V16.1774L38.9882 10.4404V31.0936L20.4004 41.4201L1.8125 31.0936Z" fill="#192657"/>
<path fill-rule="evenodd" clip-rule="evenodd" d="M6.97579 13.3089L1.8125 10.4403L20.4004 0.11377L38.9882 10.4403L33.8249 13.3089V28.5118L20.4004 36.2568L6.97578 28.5118L6.97579 13.3089ZM33.2656 13.6196L28.6616 16.1773V16.1199L20.4004 11.473L12.139 16.1199V16.1773L7.53514 13.6196V28.1941L20.4004 35.6163L33.2656 28.1941V13.6196Z" fill="url(#paint0_linear_9181_35656)"/>
<path d="M48.8867 29.4614V12.1128H52.1582V26.4873H60.089V29.4614H48.8867Z" fill="#9DB2FF"/>
<path d="M67.1547 29.8085C65.9321 29.8085 64.8333 29.5607 63.8585 29.0649C62.8837 28.5692 62.1154 27.8505 61.5536 26.9088C60.9918 25.967 60.7109 24.8352 60.7109 23.5134V23.1168C60.7109 21.795 60.9918 20.6632 61.5536 19.7215C62.1154 18.7797 62.8837 18.061 63.8585 17.5653C64.8333 17.0696 65.9321 16.8218 67.1547 16.8218C68.3774 16.8218 69.4762 17.0696 70.451 17.5653C71.4258 18.061 72.1941 18.7797 72.7559 19.7215C73.3176 20.6632 73.5986 21.795 73.5986 23.1168V23.5134C73.5986 24.8352 73.3176 25.967 72.7559 26.9088C72.1941 27.8505 71.4258 28.5692 70.451 29.0649C69.4762 29.5607 68.3774 29.8085 67.1547 29.8085ZM67.1547 27.0327C68.113 27.0327 68.9062 26.7271 69.534 26.1156C70.1619 25.4878 70.4757 24.5956 70.4757 23.439V23.1912C70.4757 22.0347 70.1619 21.1506 69.534 20.5393C68.9227 19.9115 68.1295 19.5976 67.1547 19.5976C66.1965 19.5976 65.4033 19.9115 64.7755 20.5393C64.1476 21.1506 63.8338 22.0347 63.8338 23.1912V23.439C63.8338 24.5956 64.1476 25.4878 64.7755 26.1156C65.4033 26.7271 66.1965 27.0327 67.1547 27.0327Z" fill="#9DB2FF"/>
<path d="M74.7656 23.3647V22.9682C74.7656 21.6794 75.0216 20.5807 75.5339 19.6719C76.0461 18.7466 76.7236 18.0444 77.5662 17.5653C78.4253 17.0696 79.3589 16.8218 80.3667 16.8218C81.4903 16.8218 82.3412 17.0201 82.9194 17.4166C83.4978 17.8131 83.9191 18.2262 84.1834 18.6558H84.6296V17.1687H87.7027V31.6425C87.7027 32.4851 87.4548 33.1542 86.9592 33.65C86.4635 34.1622 85.8026 34.4183 84.9765 34.4183H76.7483V31.6921H83.886C84.3486 31.6921 84.58 31.4442 84.58 30.9485V27.7514H84.1338C83.9686 28.0157 83.7373 28.2884 83.4399 28.5692C83.1425 28.8336 82.746 29.0567 82.2503 29.2385C81.7546 29.4202 81.1267 29.5111 80.3667 29.5111C79.3589 29.5111 78.4253 29.2715 77.5662 28.7923C76.7236 28.2966 76.0461 27.5944 75.5339 26.6857C75.0216 25.7605 74.7656 24.6535 74.7656 23.3647ZM81.259 26.7849C82.2172 26.7849 83.0186 26.4792 83.663 25.8679C84.3074 25.2566 84.6296 24.3974 84.6296 23.2904V23.0425C84.6296 21.9189 84.3074 21.0598 83.663 20.465C83.0351 19.8537 82.2338 19.548 81.259 19.548C80.3006 19.548 79.4992 19.8537 78.8549 20.465C78.2106 21.0598 77.8883 21.9189 77.8883 23.0425V23.2904C77.8883 24.3974 78.2106 25.2566 78.8549 25.8679C79.4992 26.4792 80.3006 26.7849 81.259 26.7849Z" fill="#9DB2FF"/>
<path d="M95.9008 29.8085C94.6781 29.8085 93.5793 29.5607 92.6045 29.0649C91.6296 28.5692 90.8614 27.8505 90.2996 26.9088C89.7379 25.967 89.457 24.8352 89.457 23.5134V23.1168C89.457 21.795 89.7379 20.6632 90.2996 19.7215C90.8614 18.7797 91.6296 18.061 92.6045 17.5653C93.5793 17.0696 94.6781 16.8218 95.9008 16.8218C97.1234 16.8218 98.2221 17.0696 99.197 17.5653C100.172 18.061 100.94 18.7797 101.502 19.7215C102.064 20.6632 102.345 21.795 102.345 23.1168V23.5134C102.345 24.8352 102.064 25.967 101.502 26.9088C100.94 27.8505 100.172 28.5692 99.197 29.0649C98.2221 29.5607 97.1234 29.8085 95.9008 29.8085ZM95.9008 27.0327C96.859 27.0327 97.6522 26.7271 98.28 26.1156C98.9079 25.4878 99.2218 24.5956 99.2218 23.439V23.1912C99.2218 22.0347 98.9079 21.1506 98.28 20.5393C97.6687 19.9115 96.8756 19.5976 95.9008 19.5976C94.9424 19.5976 94.1494 19.9115 93.5215 20.5393C92.8937 21.1506 92.5798 22.0347 92.5798 23.1912V23.439C92.5798 24.5956 92.8937 25.4878 93.5215 26.1156C94.1494 26.7271 94.9424 27.0327 95.9008 27.0327Z" fill="#9DB2FF"/>
<path d="M104.11 29.4613V17.1685H107.233V29.4613H104.11ZM105.671 15.7311C105.11 15.7311 104.631 15.5493 104.234 15.1858C103.854 14.8223 103.664 14.3431 103.664 13.7484C103.664 13.1536 103.854 12.6744 104.234 12.3109C104.631 11.9474 105.11 11.7656 105.671 11.7656C106.25 11.7656 106.729 11.9474 107.109 12.3109C107.489 12.6744 107.679 13.1536 107.679 13.7484C107.679 14.3431 107.489 14.8223 107.109 15.1858C106.729 15.5493 106.25 15.7311 105.671 15.7311Z" fill="#9DB2FF"/>
<path d="M109.578 34.418V17.1685H112.651V18.6556H113.098C113.378 18.1764 113.816 17.755 114.411 17.3915C115.006 17.0115 115.857 16.8215 116.964 16.8215C117.956 16.8215 118.872 17.0693 119.714 17.5651C120.558 18.0442 121.235 18.7546 121.747 19.6965C122.259 20.6382 122.515 21.7783 122.515 23.1166V23.5132C122.515 24.8514 122.259 25.9915 121.747 26.9333C121.235 27.8751 120.558 28.5938 119.714 29.0895C118.872 29.5687 117.956 29.8082 116.964 29.8082C116.22 29.8082 115.592 29.7173 115.08 29.5356C114.584 29.3704 114.179 29.1556 113.866 28.8912C113.568 28.6103 113.329 28.3295 113.147 28.0486H112.701V34.418H109.578ZM116.022 27.082C116.997 27.082 117.798 26.7763 118.426 26.165C119.07 25.5372 119.392 24.6284 119.392 23.4388V23.191C119.392 22.0013 119.07 21.1008 118.426 20.4895C117.782 19.8617 116.98 19.5477 116.022 19.5477C115.063 19.5477 114.262 19.8617 113.618 20.4895C112.974 21.1008 112.651 22.0013 112.651 23.191V23.4388C112.651 24.6284 112.974 25.5372 113.618 26.165C114.262 26.7763 115.063 27.082 116.022 27.082Z" fill="#9DB2FF"/>
<path d="M129.374 29.8085C127.771 29.8085 126.458 29.4615 125.433 28.7675C124.41 28.0736 123.79 27.0822 123.574 25.7934L126.45 25.05C126.565 25.6282 126.756 26.0827 127.019 26.4131C127.301 26.7436 127.639 26.9831 128.036 27.1318C128.448 27.2639 128.895 27.3301 129.374 27.3301C130.101 27.3301 130.638 27.2061 130.986 26.9584C131.332 26.694 131.506 26.3718 131.506 25.9918C131.506 25.6117 131.341 25.3226 131.01 25.1243C130.68 24.9095 130.151 24.736 129.423 24.6039L128.73 24.4799C127.87 24.3147 127.085 24.0916 126.375 23.8108C125.665 23.5134 125.095 23.1086 124.665 22.5964C124.236 22.0841 124.021 21.4233 124.021 20.6136C124.021 19.391 124.467 18.4575 125.359 17.8131C126.251 17.1522 127.425 16.8218 128.878 16.8218C130.25 16.8218 131.39 17.1275 132.298 17.7388C133.207 18.3501 133.802 19.1515 134.083 20.1428L131.183 21.035C131.052 20.4072 130.779 19.961 130.366 19.6967C129.969 19.4323 129.473 19.3001 128.878 19.3001C128.284 19.3001 127.83 19.4075 127.515 19.6223C127.202 19.8206 127.045 20.1015 127.045 20.465C127.045 20.8615 127.21 21.1589 127.54 21.3572C127.87 21.5389 128.317 21.6794 128.878 21.7785L129.572 21.9024C130.497 22.0677 131.332 22.2907 132.076 22.5716C132.836 22.8359 133.43 23.2242 133.86 23.7365C134.306 24.2321 134.53 24.9095 134.53 25.7687C134.53 27.0575 134.058 28.0571 133.116 28.7675C132.191 29.4615 130.944 29.8085 129.374 29.8085Z" fill="#9DB2FF"/>
<path d="M140.838 29.66C139.88 29.66 139.037 29.4452 138.31 29.0157C137.6 28.5695 137.046 27.9582 136.649 27.1816C136.254 26.4051 136.055 25.5128 136.055 24.505V17.1689H139.178V24.2571C139.178 25.1824 139.401 25.8763 139.847 26.3389C140.309 26.8016 140.962 27.0329 141.805 27.0329C142.762 27.0329 143.507 26.7189 144.035 26.0911C144.564 25.4467 144.828 24.5546 144.828 23.4145V17.1689H147.951V29.4618H144.878V27.8508H144.432C144.233 28.2639 143.862 28.6686 143.317 29.0651C142.771 29.4618 141.945 29.66 140.838 29.66Z" fill="#9DB2FF"/>
<path d="M150.309 29.4617V17.1689H153.381V18.5073H153.827C154.042 18.0942 154.398 17.739 154.893 17.4415C155.388 17.1277 156.041 16.9707 156.852 16.9707C157.727 16.9707 158.429 17.1442 158.958 17.4911C159.486 17.8215 159.891 18.2594 160.172 18.8046H160.618C160.899 18.276 161.296 17.8381 161.808 17.4911C162.32 17.1442 163.047 16.9707 163.989 16.9707C164.749 16.9707 165.435 17.1359 166.046 17.4664C166.674 17.7802 167.169 18.2676 167.533 18.9286C167.912 19.5729 168.103 20.3908 168.103 21.3822V29.4617H164.98V21.6053C164.98 20.9278 164.807 20.4239 164.46 20.0934C164.112 19.7465 163.625 19.5729 162.998 19.5729C162.287 19.5729 161.733 19.8043 161.337 20.2669C160.957 20.713 160.767 21.3574 160.767 22.2001V29.4617H157.644V21.6053C157.644 20.9278 157.47 20.4239 157.124 20.0934C156.777 19.7465 156.29 19.5729 155.661 19.5729C154.951 19.5729 154.398 19.8043 154.001 20.2669C153.621 20.713 153.431 21.3574 153.431 22.2001V29.4617H150.309Z" fill="#9DB2FF"/>
</g>
<defs>
<linearGradient id="paint0_linear_9181_35656" x1="6.97578" y1="8.14553" x2="34.8575" y2="8.14554" gradientUnits="userSpaceOnUse">
<stop stop-color="#64C2DB"/>
<stop offset="0.307292" stop-color="#7476ED"/>
<stop offset="0.604167" stop-color="#C994DF"/>
<stop offset="1" stop-color="#E56F8C"/>
</linearGradient>
<clipPath id="clip0_9181_35656">
<rect width="168.19" height="41.7726" fill="white" transform="translate(0.847656 0.11377)"/>
</clipPath>
</defs>
</svg>
