<svg width="174" height="44" viewBox="0 0 174 44" fill="none" xmlns="http://www.w3.org/2000/svg">
<g clip-path="url(#clip0_9181_35644)">
<path d="M50.9805 30.6029H63.3785V26.8685H55.387V12.8025H50.9805V30.6029Z" fill="#C0AAFB"/>
<path d="M70.7262 28.1134C68.9586 28.1134 68.0375 26.5698 68.0375 24.2545C68.0375 21.9392 68.9586 20.3708 70.7262 20.3708C72.4938 20.3708 73.4398 21.9392 73.4398 24.2545C73.4398 26.5698 72.4938 28.1134 70.7262 28.1134ZM70.7511 31.0013C74.8589 31.0013 77.5476 28.0885 77.5476 24.2545C77.5476 20.4206 74.8589 17.5078 70.7511 17.5078C66.6682 17.5078 63.9297 20.4206 63.9297 24.2545C63.9297 28.0885 66.6682 31.0013 70.7511 31.0013Z" fill="#C0AAFB"/>
<path d="M84.654 35.0092C86.5461 35.0092 88.2141 34.586 89.3344 33.5902C90.3551 32.669 91.0273 31.2749 91.0273 29.3579V17.8561H87.1436V19.2254H87.0938C86.3469 18.1548 85.2017 17.4827 83.5088 17.4827C80.3471 17.4827 78.1562 20.1216 78.1562 23.856C78.1562 27.7646 80.8201 29.9056 83.6831 29.9056C85.2266 29.9056 86.1975 29.2832 86.9444 28.4368H87.044V29.7064C87.044 31.25 86.322 32.1462 84.6042 32.1462C83.2599 32.1462 82.5877 31.5736 82.3636 30.9014H78.4301C78.8284 33.5653 81.1437 35.0092 84.654 35.0092ZM84.6291 26.8932C83.1105 26.8932 82.1147 25.6484 82.1147 23.7315C82.1147 21.7896 83.1105 20.5448 84.6291 20.5448C86.322 20.5448 87.2183 21.9888 87.2183 23.7066C87.2183 25.4991 86.3967 26.8932 84.6291 26.8932Z" fill="#C0AAFB"/>
<path d="M99.0153 28.1131C97.2477 28.1131 96.3265 26.5696 96.3265 24.2543C96.3265 21.939 97.2477 20.3706 99.0153 20.3706C100.783 20.3706 101.729 21.939 101.729 24.2543C101.729 26.5696 100.783 28.1131 99.0153 28.1131ZM99.0402 31.001C103.148 31.001 105.837 28.0882 105.837 24.2543C105.837 20.4204 103.148 17.5076 99.0402 17.5076C94.9573 17.5076 92.2188 20.4204 92.2188 24.2543C92.2188 28.0882 94.9573 31.001 99.0402 31.001Z" fill="#C0AAFB"/>
<path d="M107.023 30.6026H111.081V17.8561H107.023V30.6026ZM107.023 16.0885H111.081V12.8022H107.023V16.0885Z" fill="#C0AAFB"/>
<path d="M112.84 34.81H116.898V29.2832H116.948C117.744 30.3537 118.914 31.001 120.557 31.001C123.894 31.001 126.109 28.3621 126.109 24.2294C126.109 20.3955 124.043 17.4827 120.657 17.4827C118.914 17.4827 117.67 18.2544 116.798 19.3996H116.724V17.8561H112.84V34.81ZM119.512 27.8642C117.769 27.8642 116.773 26.4451 116.773 24.3788C116.773 22.3124 117.67 20.744 119.437 20.744C121.18 20.744 122.001 22.1879 122.001 24.3788C122.001 26.5447 121.055 27.8642 119.512 27.8642Z" fill="#C0AAFB"/>
<path d="M132.715 31.0013C136.051 31.0013 138.515 29.5573 138.515 26.769C138.515 23.5077 135.876 22.9351 133.636 22.5616C132.018 22.2629 130.574 22.1384 130.574 21.2422C130.574 20.4455 131.345 20.0721 132.341 20.0721C133.462 20.0721 134.233 20.4206 134.383 21.5658H138.117C137.918 19.0513 135.976 17.4829 132.366 17.4829C129.354 17.4829 126.864 18.8771 126.864 21.5658C126.864 24.5533 129.229 25.1508 131.445 25.5242C133.138 25.823 134.681 25.9474 134.681 27.0926C134.681 27.9142 133.91 28.3623 132.69 28.3623C131.345 28.3623 130.499 27.7399 130.35 26.4702H126.516C126.64 29.2835 128.98 31.0013 132.715 31.0013Z" fill="#C0AAFB"/>
<path d="M144.028 30.976C145.796 30.976 146.916 30.2789 147.837 29.0341H147.912V30.6025H151.796V17.856H147.738V24.9761C147.738 26.4947 146.891 27.5404 145.497 27.5404C144.202 27.5404 143.58 26.7686 143.58 25.3744V17.856H139.547V26.2209C139.547 29.059 141.09 30.976 144.028 30.976Z" fill="#C0AAFB"/>
<path d="M153.562 30.6029H157.62V23.4579C157.62 21.9392 158.367 20.8687 159.637 20.8687C160.857 20.8687 161.43 21.6654 161.43 23.0346V30.6029H165.488V23.4579C165.488 21.9392 166.209 20.8687 167.504 20.8687C168.724 20.8687 169.297 21.6654 169.297 23.0346V30.6029H173.355V22.3127C173.355 19.4497 171.911 17.4829 169.023 17.4829C167.38 17.4829 166.01 18.18 165.015 19.7235H164.965C164.317 18.3543 163.048 17.4829 161.38 17.4829C159.537 17.4829 158.318 18.3543 157.521 19.6737H157.446V17.8563H153.562V30.6029Z" fill="#C0AAFB"/>
<path fill-rule="evenodd" clip-rule="evenodd" d="M9.51253 4.77168C8.02848 5.80938 6.6865 7.03627 5.52154 8.41737C10.2821 7.9754 16.3302 8.69709 23.3521 12.208C30.8504 15.9571 36.8885 16.0839 41.0906 15.2733C40.7093 14.1189 40.2292 13.0094 39.6607 11.9546C34.8503 12.462 28.6835 11.7904 21.4965 8.19703C16.9327 5.91513 12.9098 4.97514 9.51253 4.77168ZM36.8507 7.95499C33.0519 3.71064 27.5314 1.03955 21.387 1.03955C19.5825 1.03955 17.8318 1.26995 16.1627 1.7029C18.4232 2.31969 20.8246 3.22205 23.3521 4.4858C28.614 7.11671 33.1568 7.96382 36.8507 7.95499ZM41.9891 19.3255C36.9124 20.328 29.9021 20.122 21.4965 15.9192C13.6382 11.9901 7.38365 12.0396 3.16536 12.977C2.94762 13.0253 2.73501 13.0762 2.52754 13.1291C1.97526 14.3302 1.53441 15.5932 1.2181 16.9048C1.55594 16.8146 1.90504 16.7288 2.26523 16.6487C7.38275 15.5115 14.6134 15.5608 23.3521 19.9302C31.2105 23.8594 37.465 23.8099 41.6834 22.8725C41.8279 22.8404 41.9703 22.8072 42.1103 22.773C42.1257 22.4459 42.1333 22.1168 42.1333 21.7859C42.1333 20.9535 42.0844 20.1324 41.9891 19.3255ZM41.4329 27.1512C36.4056 28.0301 29.5994 27.6928 21.4965 23.6415C13.6382 19.7123 7.38365 19.7618 3.16536 20.6992C2.22902 20.9072 1.38671 21.1606 0.643664 21.4281C0.641638 21.5471 0.640625 21.6664 0.640625 21.7859C0.640625 33.2438 9.92908 42.5323 21.387 42.5323C30.9895 42.5323 39.0684 36.0085 41.4329 27.1512Z" fill="#7F57F1"/>
</g>
<defs>
<clipPath id="clip0_9181_35644">
<rect width="173.232" height="42.5301" fill="white" transform="translate(0.535156 0.734863)"/>
</clipPath>
</defs>
</svg>
