<svg width="174" height="34" viewBox="0 0 174 34" fill="none" xmlns="http://www.w3.org/2000/svg">
<g clip-path="url(#clip0_9181_35684)">
<path d="M11.9005 27.5906C8.56026 30.9309 2.90311 30.9176 1.32322 26.4658C1.0139 25.5942 0.766592 24.698 0.584695 23.7835C-0.157989 20.0497 0.223184 16.1797 1.68001 12.6625C3.13684 9.14547 5.60389 6.13936 8.76918 4.02437C11.9345 1.90939 15.6559 0.780517 19.4628 0.780518C23.2696 0.780518 26.991 1.90939 30.1563 4.02437C33.3216 6.13936 35.7887 9.14547 37.2455 12.6626C38.7023 16.1797 39.0834 20.0497 38.3408 23.7835C38.1589 24.698 37.9116 25.5942 37.6022 26.4658C36.0223 30.9176 30.3652 30.9309 27.0249 27.5906L21.8687 22.4344C21.3761 21.9418 21.427 21.1294 21.5629 20.4461C21.6455 20.0308 21.6031 19.6003 21.441 19.209C21.2789 18.8177 21.0045 18.4833 20.6524 18.248C20.3003 18.0128 19.8863 17.8872 19.4628 17.8872C19.0393 17.8872 18.6253 18.0128 18.2732 18.248C17.9209 18.4833 17.6465 18.8177 17.4845 19.209C17.3224 19.6003 17.28 20.0308 17.3627 20.4461C17.4986 21.1294 17.5493 21.9418 17.0567 22.4344L11.9005 27.5906Z" fill="url(#paint0_linear_9181_35684)"/>
<path d="M54.3716 22.9695H59.5453V26.0184H50.4219V9.80396H54.3716V22.9695Z" fill="#BDBEFF"/>
<path d="M66.6052 26.2035C65.3425 26.2035 64.2031 25.934 63.1867 25.3951C62.1859 24.8562 61.3928 24.0863 60.8077 23.0854C60.238 22.0845 59.9531 20.9142 59.9531 19.5745C59.9531 18.2503 60.2456 17.0877 60.8308 16.0867C61.416 15.0705 62.2167 14.2929 63.2329 13.754C64.2492 13.215 65.3887 12.9456 66.6514 12.9456C67.9141 12.9456 69.0535 13.215 70.0698 13.754C71.0861 14.2929 71.8868 15.0705 72.4719 16.0867C73.0571 17.0877 73.3497 18.2503 73.3497 19.5745C73.3497 20.8988 73.0493 22.069 72.4489 23.0854C71.8638 24.0863 71.0554 24.8562 70.0236 25.3951C69.0073 25.934 67.8679 26.2035 66.6052 26.2035ZM66.6052 22.785C67.3597 22.785 67.9987 22.5079 68.5223 21.9536C69.0613 21.3992 69.3307 20.6063 69.3307 19.5745C69.3307 18.5428 69.0689 17.7499 68.5454 17.1955C68.0372 16.6411 67.4059 16.3639 66.6514 16.3639C65.8815 16.3639 65.2424 16.6411 64.7343 17.1955C64.2261 17.7344 63.9721 18.5274 63.9721 19.5745C63.9721 20.6063 64.2185 21.3992 64.7112 21.9536C65.2194 22.5079 65.8507 22.785 66.6052 22.785Z" fill="#BDBEFF"/>
<path d="M79.6468 12.9456C80.5553 12.9456 81.3484 13.1303 82.0259 13.4999C82.7187 13.8694 83.25 14.3545 83.6196 14.955V13.1303H87.5692V25.9956C87.5692 27.1813 87.3306 28.2515 86.8532 29.2061C86.3912 30.1763 85.6752 30.9462 84.7052 31.5159C83.7505 32.0857 82.5571 32.3706 81.1251 32.3706C79.2157 32.3706 77.6681 31.9163 76.4824 31.0078C75.2968 30.1146 74.6192 28.8982 74.4499 27.3583H78.3534C78.4765 27.8511 78.7691 28.2361 79.2311 28.5133C79.693 28.8058 80.2628 28.9521 80.9403 28.9521C81.7564 28.9521 82.4031 28.7134 82.8805 28.2361C83.3732 27.7741 83.6196 27.0273 83.6196 25.9956V24.1709C83.2346 24.7714 82.7034 25.2642 82.0259 25.6491C81.3484 26.0187 80.5553 26.2035 79.6468 26.2035C78.5843 26.2035 77.6219 25.934 76.7596 25.3951C75.8973 24.8407 75.2121 24.0631 74.704 23.0622C74.2113 22.046 73.9648 20.8757 73.9648 19.5514C73.9648 18.2271 74.2113 17.0646 74.704 16.0637C75.2121 15.0628 75.8973 14.2929 76.7596 13.754C77.6219 13.215 78.5843 12.9456 79.6468 12.9456ZM83.6196 19.5745C83.6196 18.589 83.3424 17.8114 82.7881 17.2417C82.2491 16.672 81.5869 16.3871 80.8017 16.3871C80.0164 16.3871 79.3465 16.672 78.7922 17.2417C78.2532 17.796 77.9838 18.566 77.9838 19.5514C77.9838 20.5369 78.2532 21.3223 78.7922 21.9074C79.3465 22.4771 80.0164 22.762 80.8017 22.762C81.5869 22.762 82.2491 22.4771 82.7881 21.9074C83.3424 21.3376 83.6196 20.5601 83.6196 19.5745Z" fill="#BDBEFF"/>
<path d="M95.5974 26.2035C94.3347 26.2035 93.1952 25.934 92.179 25.3951C91.1781 24.8562 90.385 24.0863 89.7999 23.0854C89.2302 22.0845 88.9453 20.9142 88.9453 19.5745C88.9453 18.2503 89.2378 17.0877 89.8231 16.0867C90.4082 15.0705 91.2089 14.2929 92.2251 13.754C93.2414 13.215 94.3809 12.9456 95.6436 12.9456C96.9062 12.9456 98.0457 13.215 99.062 13.754C100.078 14.2929 100.879 15.0705 101.464 16.0867C102.049 17.0877 102.342 18.2503 102.342 19.5745C102.342 20.8988 102.042 22.069 101.441 23.0854C100.856 24.0863 100.048 24.8562 99.0158 25.3951C97.9995 25.934 96.86 26.2035 95.5974 26.2035ZM95.5974 22.785C96.3519 22.785 96.9909 22.5079 97.5145 21.9536C98.0535 21.3992 98.3229 20.6063 98.3229 19.5745C98.3229 18.5428 98.0611 17.7499 97.5376 17.1955C97.0294 16.6411 96.3981 16.3639 95.6436 16.3639C94.8737 16.3639 94.2346 16.6411 93.7265 17.1955C93.2184 17.7344 92.9643 18.5274 92.9643 19.5745C92.9643 20.6063 93.2107 21.3992 93.7034 21.9536C94.2116 22.5079 94.8429 22.785 95.5974 22.785Z" fill="#BDBEFF"/>
<path d="M105.731 11.7904C105.038 11.7904 104.468 11.5902 104.022 11.1898C103.591 10.7741 103.375 10.2659 103.375 9.66541C103.375 9.04947 103.591 8.54133 104.022 8.14096C104.468 7.72521 105.038 7.51733 105.731 7.51733C106.408 7.51733 106.963 7.72521 107.394 8.14096C107.84 8.54133 108.064 9.04947 108.064 9.66541C108.064 10.2659 107.84 10.7741 107.394 11.1898C106.963 11.5902 106.408 11.7904 105.731 11.7904ZM107.694 13.13V26.0184H103.745V13.13H107.694Z" fill="#BDBEFF"/>
<path d="M113.817 14.955C114.201 14.3545 114.733 13.8694 115.411 13.4999C116.088 13.1303 116.881 12.9456 117.79 12.9456C118.852 12.9456 119.814 13.215 120.677 13.754C121.539 14.2929 122.217 15.0628 122.709 16.0637C123.217 17.0646 123.472 18.2271 123.472 19.5514C123.472 20.8757 123.217 22.046 122.709 23.0622C122.217 24.0631 121.539 24.8407 120.677 25.3951C119.814 25.934 118.852 26.2035 117.79 26.2035C116.896 26.2035 116.104 26.0187 115.411 25.6491C114.733 25.2796 114.201 24.8023 113.817 24.2171V32.1626H109.867V13.1303H113.817V14.955ZM119.453 19.5514C119.453 18.566 119.176 17.796 118.621 17.2417C118.082 16.672 117.413 16.3871 116.612 16.3871C115.827 16.3871 115.157 16.672 114.602 17.2417C114.064 17.8114 113.794 18.589 113.794 19.5745C113.794 20.5601 114.064 21.3376 114.602 21.9074C115.157 22.4771 115.827 22.762 116.612 22.762C117.397 22.762 118.067 22.4771 118.621 21.9074C119.176 21.3223 119.453 20.5369 119.453 19.5514Z" fill="#BDBEFF"/>
<path d="M130.093 26.2035C128.968 26.2035 127.967 26.011 127.089 25.6261C126.212 25.2411 125.519 24.7176 125.011 24.0554C124.503 23.3779 124.218 22.6234 124.156 21.7918H128.06C128.106 22.2384 128.314 22.6002 128.683 22.8774C129.053 23.1546 129.508 23.2932 130.047 23.2932C130.539 23.2932 130.916 23.2008 131.178 23.016C131.455 22.8159 131.594 22.5618 131.594 22.2538C131.594 21.8842 131.401 21.6148 131.016 21.4454C130.632 21.2606 130.008 21.0605 129.145 20.8448C128.221 20.6293 127.452 20.406 126.835 20.175C126.22 19.9287 125.689 19.5514 125.242 19.0433C124.795 18.5198 124.572 17.8191 124.572 16.9415C124.572 16.2023 124.773 15.5325 125.173 14.9319C125.588 14.316 126.189 13.8309 126.974 13.4768C127.775 13.1226 128.722 12.9456 129.815 12.9456C131.431 12.9456 132.702 13.3459 133.626 14.1466C134.566 14.9474 135.105 16.0098 135.244 17.3341H131.594C131.532 16.8875 131.332 16.5334 130.993 16.2715C130.67 16.0098 130.239 15.8789 129.7 15.8789C129.238 15.8789 128.883 15.9713 128.637 16.1561C128.391 16.3255 128.268 16.5642 128.268 16.8721C128.268 17.2417 128.461 17.5189 128.845 17.7037C129.246 17.8884 129.861 18.0732 130.693 18.2579C131.647 18.5043 132.425 18.7508 133.025 18.9971C133.626 19.2281 134.15 19.613 134.596 20.152C135.058 20.6755 135.297 21.3838 135.313 22.277C135.313 23.0314 135.097 23.709 134.665 24.3095C134.25 24.8947 133.642 25.3566 132.841 25.6953C132.056 26.0342 131.14 26.2035 130.093 26.2035Z" fill="#BDBEFF"/>
<path d="M149.764 13.1301V26.0185H145.815V24.2631C145.414 24.8328 144.867 25.2948 144.175 25.6489C143.497 25.9877 142.743 26.1571 141.911 26.1571C140.925 26.1571 140.055 25.9415 139.301 25.5103C138.546 25.0638 137.961 24.4248 137.546 23.5933C137.13 22.7618 136.922 21.784 136.922 20.6598V13.1301H140.848V20.1286C140.848 20.9909 141.072 21.6607 141.518 22.1382C141.964 22.6154 142.565 22.8542 143.32 22.8542C144.09 22.8542 144.698 22.6154 145.145 22.1382C145.591 21.6607 145.815 20.9909 145.815 20.1286V13.1301H149.764Z" fill="#BDBEFF"/>
<path d="M168.352 12.9915C169.952 12.9915 171.223 13.4765 172.163 14.4466C173.117 15.4166 173.594 16.764 173.594 18.4886V26.0184H169.668V19.0199C169.668 18.1884 169.444 17.5493 168.998 17.1028C168.566 16.6408 167.967 16.4098 167.196 16.4098C166.427 16.4098 165.818 16.6408 165.372 17.1028C164.941 17.5493 164.725 18.1884 164.725 19.0199V26.0184H160.798V19.0199C160.798 18.1884 160.575 17.5493 160.129 17.1028C159.697 16.6408 159.096 16.4098 158.327 16.4098C157.557 16.4098 156.949 16.6408 156.502 17.1028C156.071 17.5493 155.856 18.1884 155.856 19.0199V26.0184H151.906V13.13H155.856V14.7468C156.256 14.2079 156.78 13.7844 157.426 13.4765C158.073 13.1531 158.805 12.9915 159.62 12.9915C160.591 12.9915 161.453 13.1993 162.207 13.6151C162.977 14.0308 163.578 14.6237 164.009 15.3936C164.456 14.6852 165.064 14.1078 165.834 13.6613C166.603 13.2147 167.443 12.9915 168.352 12.9915Z" fill="#BDBEFF"/>
</g>
<defs>
<linearGradient id="paint0_linear_9181_35684" x1="36.9586" y1="10.4045" x2="2.79358" y2="10.4045" gradientUnits="userSpaceOnUse">
<stop stop-color="#64C2DB"/>
<stop offset="0.510417" stop-color="#7476ED"/>
<stop offset="1" stop-color="#E56F8C"/>
</linearGradient>
<clipPath id="clip0_9181_35684">
<rect width="173.38" height="32.4388" fill="white" transform="translate(0.214844 0.780518)"/>
</clipPath>
</defs>
</svg>
