<svg width="168" height="44" viewBox="0 0 168 44" fill="none" xmlns="http://www.w3.org/2000/svg">
<g clip-path="url(#clip0_9181_35627)">
<path d="M44.3008 30.7677H56.6988V27.0333H48.7073V12.9673H44.3008V30.7677Z" fill="#E4B99B"/>
<path d="M64.0465 28.2779C62.2789 28.2779 61.3578 26.7344 61.3578 24.4191C61.3578 22.1038 62.2789 20.5354 64.0465 20.5354C65.8141 20.5354 66.7601 22.1038 66.7601 24.4191C66.7601 26.7344 65.8141 28.2779 64.0465 28.2779ZM64.0714 31.1658C68.1792 31.1658 70.8679 28.253 70.8679 24.4191C70.8679 20.5852 68.1792 17.6724 64.0714 17.6724C59.9885 17.6724 57.25 20.5852 57.25 24.4191C57.25 28.253 59.9885 31.1658 64.0714 31.1658Z" fill="#E4B99B"/>
<path d="M77.9743 35.1745C79.8664 35.1745 81.5344 34.7513 82.6547 33.7554C83.6754 32.8343 84.3476 31.4401 84.3476 29.5232V18.0214H80.4639V19.3906H80.4141C79.6672 18.3201 78.522 17.6479 76.8291 17.6479C73.6674 17.6479 71.4766 20.2869 71.4766 24.0212C71.4766 27.9299 74.1404 30.0709 77.0034 30.0709C78.5469 30.0709 79.5179 29.4485 80.2647 28.602H80.3643V29.8717C80.3643 31.4152 79.6423 32.3115 77.9245 32.3115C76.5802 32.3115 75.908 31.7389 75.6839 31.0667H71.7504C72.1487 33.7305 74.464 35.1745 77.9743 35.1745ZM77.9494 27.0585C76.4308 27.0585 75.435 25.8137 75.435 23.8968C75.435 21.9549 76.4308 20.7101 77.9494 20.7101C79.6423 20.7101 80.5386 22.1541 80.5386 23.8719C80.5386 25.6644 79.717 27.0585 77.9494 27.0585Z" fill="#E4B99B"/>
<path d="M92.3356 28.2779C90.568 28.2779 89.6468 26.7344 89.6468 24.4191C89.6468 22.1038 90.568 20.5354 92.3356 20.5354C94.1032 20.5354 95.0492 22.1038 95.0492 24.4191C95.0492 26.7344 94.1032 28.2779 92.3356 28.2779ZM92.3605 31.1658C96.4683 31.1658 99.1565 28.253 99.1565 24.4191C99.1565 20.5852 96.4683 17.6724 92.3605 17.6724C88.2776 17.6724 85.5391 20.5852 85.5391 24.4191C85.5391 28.253 88.2776 31.1658 92.3605 31.1658Z" fill="#E4B99B"/>
<path d="M100.344 30.7677H104.402V18.0211H100.344V30.7677ZM100.344 16.2535H104.402V12.9673H100.344V16.2535Z" fill="#E4B99B"/>
<path d="M106.156 34.9753H110.214V29.4485H110.264C111.061 30.519 112.231 31.1663 113.874 31.1663C117.21 31.1663 119.426 28.5274 119.426 24.3947C119.426 20.5607 117.359 17.6479 113.973 17.6479C112.231 17.6479 110.986 18.4197 110.115 19.5649H110.04V18.0214H106.156V34.9753ZM112.828 28.0294C111.086 28.0294 110.09 26.6104 110.09 24.544C110.09 22.4777 110.986 20.9093 112.754 20.9093C114.496 20.9093 115.318 22.3532 115.318 24.544C115.318 26.71 114.372 28.0294 112.828 28.0294Z" fill="#E4B99B"/>
<path d="M126.035 31.166C129.371 31.166 131.836 29.7221 131.836 26.9338C131.836 23.6725 129.197 23.0999 126.956 22.7264C125.338 22.4277 123.894 22.3032 123.894 21.4069C123.894 20.6103 124.666 20.2369 125.662 20.2369C126.782 20.2369 127.554 20.5854 127.703 21.7306H131.437C131.238 19.2161 129.296 17.6477 125.686 17.6477C122.674 17.6477 120.184 19.0419 120.184 21.7306C120.184 24.7181 122.55 25.3156 124.765 25.689C126.458 25.9878 128.002 26.1122 128.002 27.2574C128.002 28.079 127.23 28.5271 126.01 28.5271C124.666 28.5271 123.819 27.9047 123.67 26.635H119.836C119.96 29.4482 122.301 31.166 126.035 31.166Z" fill="#E4B99B"/>
<path d="M137.348 31.141C139.116 31.141 140.236 30.4439 141.157 29.1991H141.232V30.7676H145.116V18.021H141.058V25.1412C141.058 26.6598 140.211 27.7054 138.817 27.7054C137.523 27.7054 136.9 26.9336 136.9 25.5395V18.021H132.867V26.3859C132.867 29.224 134.411 31.141 137.348 31.141Z" fill="#E4B99B"/>
<path d="M146.883 30.7677H150.941V23.6227C150.941 22.104 151.688 21.0335 152.957 21.0335C154.177 21.0335 154.75 21.8302 154.75 23.1994V30.7677H158.808V23.6227C158.808 22.104 159.53 21.0335 160.824 21.0335C162.044 21.0335 162.617 21.8302 162.617 23.1994V30.7677H166.675V22.4775C166.675 19.6145 165.231 17.6477 162.343 17.6477C160.7 17.6477 159.331 18.3448 158.335 19.8883H158.285C157.638 18.5191 156.368 17.6477 154.7 17.6477C152.858 17.6477 151.638 18.5191 150.841 19.8385H150.767V18.0211H146.883V30.7677Z" fill="#E4B99B"/>
<path d="M19.5407 2.78508L15.4609 1.69189L12.0228 14.5231L8.91883 2.939L4.83895 4.03219L8.1926 16.5479L-0.160555 8.19483L-3.14719 11.1815L6.01517 20.3439L-5.3951 17.2865L-6.48828 21.3663L5.97886 24.7069C5.83612 24.0912 5.76061 23.4497 5.76061 22.7906C5.76061 18.1252 9.54267 14.3431 14.2081 14.3431C18.8736 14.3431 22.6556 18.1252 22.6556 22.7906C22.6556 23.4455 22.581 24.083 22.4401 24.695L33.7704 27.731L34.8635 23.6512L22.3468 20.2973L33.7579 17.2397L32.6646 13.1599L20.1484 16.5136L28.5015 8.16053L25.5149 5.17389L16.4796 14.2092L19.5407 2.78508Z" fill="#F97316"/>
<path d="M22.4296 24.7427C22.0798 26.2215 21.3414 27.55 20.3281 28.6144L28.5364 36.8228L31.5231 33.8361L22.4296 24.7427Z" fill="#F97316"/>
<path d="M20.2435 28.7002C19.218 29.7476 17.922 30.5292 16.4688 30.932L19.4556 42.079L23.5354 40.9858L20.2435 28.7002Z" fill="#F97316"/>
<path d="M16.3207 30.973C15.6465 31.1463 14.9398 31.2384 14.2115 31.2384C13.4312 31.2384 12.6756 31.1326 11.9583 30.9346L8.96875 42.0918L13.0485 43.1849L16.3207 30.973Z" fill="#F97316"/>
<path d="M11.812 30.8932C10.3809 30.4704 9.10805 29.6788 8.10351 28.6284L-0.125 36.8569L2.86164 39.8436L11.812 30.8932Z" fill="#F97316"/>
<path d="M8.03331 28.5557C7.04599 27.4987 6.32682 26.1879 5.9845 24.7319L-5.38281 27.7778L-4.28963 31.8576L8.03331 28.5557Z" fill="#F97316"/>
</g>
<defs>
<clipPath id="clip0_9181_35627">
<rect width="174.27" height="42.5301" fill="white" transform="translate(-6.81641 0.734863)"/>
</clipPath>
</defs>
</svg>
