<svg width="34" height="35" viewBox="0 0 34 35" fill="none" xmlns="http://www.w3.org/2000/svg">
<path d="M12.0044 23.6782C12.0803 23.8097 12.1895 23.9189 12.3209 23.9949C12.4524 24.0709 12.6015 24.1109 12.7534 24.111H20.936C21.2356 24.111 21.5252 23.9579 21.685 23.6782L23.0465 21.3247C18.9128 21.8357 14.7303 21.8111 10.6029 21.2514L12.001 23.6816L12.0044 23.6782ZM13.0696 26.7109V27.2668C13.0696 27.4799 13.2461 27.6563 13.4591 27.6563H20.2302C20.4433 27.6563 20.6164 27.4799 20.6164 27.2668V26.7076C20.6164 26.4945 20.4433 26.3214 20.2302 26.3214H13.4591C13.2461 26.3214 13.073 26.4945 13.073 26.7076L13.0696 26.7109ZM7.4204 15.0296H26.2756L25.227 8.50485C25.1925 8.30378 25.088 8.12137 24.9321 7.9898C24.7762 7.85824 24.5788 7.78599 24.3748 7.78579H9.32123C9.1177 7.78585 8.9207 7.85764 8.76484 7.98853C8.60899 8.11943 8.50424 8.30106 8.46902 8.50152L7.4204 15.0296ZM28.4594 29.1077V31.5246C28.4594 31.7541 28.3682 31.9743 28.2059 32.1366C28.0436 32.2989 27.8234 32.3901 27.5939 32.3901H25.2137V29.0212H8.48233V32.3901H6.0988C5.86925 32.3901 5.6491 32.2989 5.48678 32.1366C5.32446 31.9743 5.23327 31.7541 5.23327 31.5246V22.8693H8.26928C8.49883 22.8693 8.71898 22.7781 8.8813 22.6158C9.04362 22.4535 9.13481 22.2333 9.13481 22.0038V21.025C7.82451 20.8068 6.52396 20.5336 5.2366 20.2061V18.4052C5.2366 18.2287 5.2599 18.0589 5.30318 17.8992C5.63608 14.8032 7.46034 4.48347 7.57353 3.8543C7.62346 3.56468 7.73998 3.30169 7.90642 3.07865C8.07608 2.84149 8.29992 2.64828 8.55933 2.5151C8.81874 2.38193 9.1062 2.31263 9.3978 2.31299H24.2949C24.9074 2.31299 25.45 2.6126 25.7829 3.07865C25.9494 3.30169 26.0659 3.56468 26.1158 3.8543C26.229 4.4868 28.0566 14.8066 28.3862 17.9025C28.4294 18.0589 28.4527 18.2287 28.4527 18.4018V20.3326C27.1744 20.6455 25.8728 20.9052 24.5579 21.1083V22.0004C24.5579 22.23 24.649 22.4501 24.8114 22.6125C24.9737 22.7748 25.1938 22.866 25.4234 22.866H28.4527V29.1044L28.4594 29.1077ZM14.5044 8.80445C14.5044 8.58807 14.6775 8.41496 14.8906 8.41496H18.3693C18.5857 8.41496 18.7588 8.5914 18.7588 8.80445V9.36039C18.7588 9.57344 18.5824 9.74655 18.3693 9.74655H14.8906C14.6775 9.74655 14.5044 9.57344 14.5044 9.36039V8.80445ZM2.19727 14.1641V11.7472C2.19727 11.5177 2.28845 11.2975 2.45077 11.1352C2.61309 10.9729 2.83324 10.8817 3.06279 10.8817H4.86043V15.0296H3.06279C2.83324 15.0296 2.61309 14.9384 2.45077 14.7761C2.28845 14.6138 2.19727 14.3936 2.19727 14.1641ZM31.4921 11.7472V14.1641C31.4921 14.3936 31.4009 14.6138 31.2386 14.7761C31.0762 14.9384 30.8561 15.0296 30.6265 15.0296H28.8289V10.8817H30.6265C30.8561 10.8817 31.0762 10.9729 31.2386 11.1352C31.4009 11.2975 31.4921 11.5177 31.4921 11.7472Z" fill="#4EDDF2"/>
</svg>
