<svg width="34" height="35" viewBox="0 0 34 35" fill="none" xmlns="http://www.w3.org/2000/svg">
<g clip-path="url(#clip0_1132_15919)">
<path d="M9.65478 8.64258C9.13976 8.64258 8.64583 8.84717 8.28166 9.21134C7.91748 9.57552 7.71289 10.0694 7.71289 10.5845C7.71289 11.0995 7.91748 11.5934 8.28166 11.9576C8.64583 12.3218 9.13976 12.5264 9.65478 12.5264C10.1698 12.5264 10.6637 12.3218 11.0279 11.9576C11.3921 11.5934 11.5967 11.0995 11.5967 10.5845C11.5967 10.0694 11.3921 9.57552 11.0279 9.21134C10.6637 8.84717 10.1698 8.64258 9.65478 8.64258ZM9.65478 11.4167C9.43406 11.4167 9.22237 11.329 9.0663 11.1729C8.91022 11.0169 8.82254 10.8052 8.82254 10.5845C8.82254 10.3637 8.91022 10.1521 9.0663 9.99599C9.22237 9.83991 9.43406 9.75223 9.65478 9.75223C9.8755 9.75223 10.0872 9.83991 10.2433 9.99599C10.3993 10.1521 10.487 10.3637 10.487 10.5845C10.487 10.8052 10.3993 11.0169 10.2433 11.1729C10.0872 11.329 9.8755 11.4167 9.65478 11.4167ZM24.6351 8.64258C24.1201 8.64258 23.6261 8.84717 23.262 9.21134C22.8978 9.57552 22.6932 10.0694 22.6932 10.5845C22.6932 11.0995 22.8978 11.5934 23.262 11.9576C23.6261 12.3218 24.1201 12.5264 24.6351 12.5264C25.1501 12.5264 25.644 12.3218 26.0082 11.9576C26.3724 11.5934 26.577 11.0995 26.577 10.5845C26.577 10.0694 26.3724 9.57552 26.0082 9.21134C25.644 8.84717 25.1501 8.64258 24.6351 8.64258ZM24.6351 11.4167C24.4144 11.4167 24.2027 11.329 24.0466 11.1729C23.8905 11.0169 23.8028 10.8052 23.8028 10.5845C23.8028 10.3637 23.8905 10.1521 24.0466 9.99599C24.2027 9.83991 24.4144 9.75223 24.6351 9.75223C24.8558 9.75223 25.0675 9.83991 25.2236 9.99599C25.3796 10.1521 25.4673 10.3637 25.4673 10.5845C25.4673 10.8052 25.3796 11.0169 25.2236 11.1729C25.0675 11.329 24.8558 11.4167 24.6351 11.4167ZM20.4739 8.64258H13.816C13.1918 8.64258 12.7063 9.12805 12.7063 9.75223V11.4167C12.7063 12.0409 13.1918 12.5264 13.816 12.5264H20.4739C21.0981 12.5264 21.5835 12.0409 21.5835 11.4167V9.75223C21.5835 9.12805 21.0981 8.64258 20.4739 8.64258ZM20.4739 11.4167H13.816V9.75223H20.4739V11.4167Z" fill="#4EEBF4"/>
<path d="M33.2347 0.875H30.4606C30.1832 0.875 29.9058 1.15241 29.9058 1.42983V19.1843H28.7961V18.6294C28.7961 18.352 28.5187 18.0746 28.2413 18.0746H27.6865V15.994C28.0332 15.6472 28.2413 15.2311 28.2413 14.7456V9.19739C28.2413 8.64256 28.0332 8.15709 27.6171 7.87968L25.5365 6.2152L25.3285 5.93779L24.5656 2.19271C24.3575 1.42983 23.664 0.875 22.9011 0.875H11.3885C10.6256 0.875 9.93204 1.42983 9.72398 2.19271L8.89174 5.93779L8.75303 6.2152L6.67244 7.87968C6.25632 8.22644 6.04826 8.64256 6.04826 9.19739V14.7456C6.04826 15.2311 6.25632 15.6472 6.60308 15.994V18.0746H6.04826C5.77085 18.0746 5.49343 18.352 5.49343 18.6294V19.1843H4.38378V1.42983C4.38378 1.15241 4.10637 0.875 3.82896 0.875H1.05483C0.777413 0.875 0.5 1.15241 0.5 1.42983V33.6097C0.5 33.8871 0.777413 34.1646 1.05483 34.1646H3.82896C4.10637 34.1646 4.38378 33.8871 4.38378 33.6097V24.5938L10.6256 23.068C10.8336 22.9987 11.0417 22.7906 11.0417 22.5132V21.4036H11.5965C11.8739 21.4036 12.1513 21.1261 12.1513 20.8487V18.6294C12.1513 18.352 11.8739 18.0746 11.5965 18.0746H11.0417V16.4101H23.2479V18.0746H22.693C22.4156 18.0746 22.1382 18.352 22.1382 18.6294V20.8487C22.1382 21.1261 22.4156 21.4036 22.693 21.4036H23.2479V22.5132C23.2479 22.7906 23.4559 22.9987 23.664 23.068L29.9058 24.5938V33.6097C29.9058 33.8871 30.1832 34.1646 30.4606 34.1646H33.2347C33.5121 34.1646 33.7896 33.8871 33.7896 33.6097V1.42983C33.7896 1.15241 33.5121 0.875 33.2347 0.875ZM3.27413 19.7391V33.0549H1.60965V1.98465H3.27413V19.7391ZM15.619 2.40077L15.8964 1.98465H22.9011C23.1785 1.98465 23.3866 2.19271 23.4559 2.40077L24.2188 5.86843H16.1045C16.5206 5.10555 16.3819 4.1346 15.7577 3.51042C15.4109 3.23301 15.4109 2.74754 15.619 2.40077ZM13.261 2.40077L13.5384 1.98465H14.5787C14.2319 2.74754 14.3706 3.71848 14.9255 4.34266C15.2722 4.62007 15.2722 5.10555 15.0642 5.45231L14.7868 5.86843H13.7465C14.1626 5.10555 14.0239 4.1346 13.3997 3.51042C13.0529 3.23301 13.0529 2.74754 13.261 2.40077ZM10.8336 2.40077C10.903 2.19271 11.111 1.98465 11.3885 1.98465H12.2207C11.8046 2.74754 11.9433 3.71848 12.5675 4.34266C12.9142 4.62007 12.9142 5.10555 12.7062 5.45231L12.4288 5.86843H10.0707L10.8336 2.40077ZM7.15791 9.19739C7.15791 8.98933 7.22726 8.85062 7.36597 8.71192L9.44657 7.11679L9.51592 6.97808H24.7043L24.843 7.04744L26.9236 8.71192C27.0623 8.85062 27.1316 8.98933 27.1316 9.19739V13.0812H7.15791V9.19739ZM9.93204 22.0971L4.38378 23.4842V20.2939H5.49343V20.8487C5.49343 21.1261 5.77085 21.4036 6.04826 21.4036H9.93204V22.0971ZM11.0417 20.2939H6.60308V19.1843H11.0417V20.2939ZM7.71274 18.0746V16.4101H9.93204V18.0746H7.71274ZM11.0417 15.3005H7.71274C7.43532 15.3005 7.15791 15.0231 7.15791 14.7456V14.1908H27.1316V14.7456C27.1316 15.0231 26.8542 15.3005 26.5768 15.3005H11.0417ZM26.5768 16.4101V18.0746H24.3575V16.4101H26.5768ZM23.2479 20.2939V19.1843H27.6865V20.2939H23.2479ZM29.9058 23.4842L24.3575 22.0971V21.4036H28.2413C28.5187 21.4036 28.7961 21.1261 28.7961 20.8487V20.2939H29.9058V23.4842ZM32.6799 33.0549H31.0154V1.98465H32.6799V33.0549Z" fill="#4EEBF4"/>
<path d="M21.9309 23.7615L17.4923 19.8777C17.2842 19.6697 17.0068 19.6697 16.7987 19.8777L12.3601 23.7615C12.2768 23.8349 12.2173 23.9316 12.1895 24.0391C12.1617 24.1466 12.1668 24.26 12.2042 24.3646C12.2415 24.4692 12.3094 24.5601 12.399 24.6257C12.4887 24.6913 12.5959 24.7285 12.7069 24.7325H14.3714V29.7259C14.3714 30.0033 14.6488 30.2807 14.9262 30.2807H19.3648C19.6422 30.2807 19.9196 30.0033 19.9196 29.7259V24.7325H21.5841C21.6951 24.7285 21.8023 24.6913 21.8919 24.6257C21.9816 24.5601 22.0494 24.4692 22.0868 24.3646C22.1241 24.26 22.1292 24.1466 22.1014 24.0391C22.0737 23.9316 22.0142 23.8349 21.9309 23.7615ZM19.3648 23.6228C19.0874 23.6228 18.81 23.9002 18.81 24.1776V29.1711H15.481V24.1776C15.481 23.9002 15.2036 23.6228 14.9262 23.6228H14.1633L17.1455 21.0567L20.1277 23.6228H19.3648Z" fill="#4EEBF4"/>
</g>
<defs>
<clipPath id="clip0_1132_15919">
<rect width="33.2896" height="33.2896" fill="white" transform="translate(0.5 0.875)"/>
</clipPath>
</defs>
</svg>
