<svg width="46" height="46" viewBox="0 0 46 46" fill="none" xmlns="http://www.w3.org/2000/svg">
<path d="M5.39224 16.6176C11.5031 16.5956 17.4618 15.6769 23.2729 13.861C28.2189 12.3153 33.0607 10.1188 37.7995 7.26943C40.361 5.72933 43.686 6.55724 45.2262 9.11868C45.7324 9.96079 46 10.9248 46 11.9074V38.1524C46 38.8996 45.3943 39.5054 44.647 39.5054H1.35296C0.605728 39.5054 0 38.8996 0 38.1524V22.0294C0 19.048 2.41105 16.6283 5.39224 16.6176ZM6.7647 36.7994V30.0347C6.7647 29.2874 7.37042 28.6817 8.11765 28.6817H28.4117C29.159 28.6817 29.7647 29.2874 29.7647 30.0347V36.7994H35.1764V24.6229C35.1764 23.8757 35.7822 23.27 36.5294 23.27H43.2941V11.9073C43.2941 11.4161 43.1603 10.9341 42.9071 10.513C42.1371 9.23225 40.4745 8.81825 39.1938 9.58839C34.2733 12.547 29.235 14.8327 24.0799 16.4436C18.0104 18.3403 11.783 19.3005 5.40194 19.3234C3.91135 19.3288 2.70582 20.5386 2.70582 22.0293V36.7994H6.7647ZM37.8823 25.9758V36.7994H43.2941V25.9758H37.8823ZM19.6177 31.3875V36.7993H27.0588V31.3875H19.6177ZM9.47061 31.3875V36.7993H16.9118V31.3875H9.47061Z" fill="white"/>
</svg>
