<svg width="20" height="20" viewBox="0 0 20 20" fill="none" xmlns="http://www.w3.org/2000/svg">
<path d="M10.8044 0.380859C11.8929 0.383762 12.4454 0.389568 12.9225 0.403115L13.1102 0.409888C13.327 0.417629 13.5408 0.427305 13.7992 0.438917C14.8287 0.487298 15.5312 0.64986 16.1476 0.888863C16.7862 1.13464 17.3242 1.4675 17.8622 2.00454C18.3542 2.48825 18.735 3.07336 18.9779 3.71917C19.2169 4.33555 19.3795 5.03804 19.4278 6.06857C19.4394 6.32595 19.4491 6.5398 19.4569 6.75752L19.4627 6.94524C19.4772 7.42131 19.483 7.97382 19.4849 9.0624L19.4859 9.78425V11.0518C19.4883 11.7576 19.4809 12.4634 19.4636 13.169L19.4578 13.3567C19.4501 13.5744 19.4404 13.7883 19.4288 14.0457C19.3804 15.0762 19.2159 15.7777 18.9779 16.3951C18.7357 17.0412 18.3549 17.6265 17.8622 18.1097C17.3784 18.6016 16.7933 18.9823 16.1476 19.2254C15.5312 19.4644 14.8287 19.6269 13.7992 19.6753C13.5696 19.6861 13.3399 19.6958 13.1102 19.7044L12.9225 19.7102C12.4454 19.7237 11.8929 19.7305 10.8044 19.7324L10.0825 19.7334H8.81588C8.10977 19.7358 7.40365 19.7284 6.69775 19.7111L6.51003 19.7053C6.28032 19.6966 6.05067 19.6866 5.82108 19.6753C4.79152 19.6269 4.08903 19.4644 3.47168 19.2254C2.82595 18.9829 2.24107 18.6021 1.75802 18.1097C1.26554 17.6262 0.884466 17.041 0.641375 16.3951C0.402371 15.7787 0.23981 15.0762 0.191428 14.0457C0.180648 13.8161 0.170971 13.5864 0.1624 13.3567L0.157562 13.169C0.13973 12.4634 0.131666 11.7576 0.133371 11.0518V9.0624C0.13067 8.35662 0.137767 7.65083 0.154659 6.94524L0.161432 6.75752C0.169173 6.5398 0.178849 6.32595 0.190461 6.06857C0.238842 5.03804 0.401403 4.33651 0.640407 3.71917C0.883391 3.0727 1.26522 2.4874 1.75898 2.00454C2.24192 1.51247 2.82641 1.13172 3.47168 0.888863C4.08903 0.64986 4.79056 0.487298 5.82108 0.438917C6.07847 0.427305 6.29328 0.417629 6.51003 0.409888L6.69775 0.404082C7.40333 0.38689 8.10912 0.379471 8.81491 0.381827L10.8044 0.380859ZM9.80963 5.21899C8.52648 5.21899 7.29588 5.72872 6.38856 6.63605C5.48123 7.54337 4.9715 8.77397 4.9715 10.0571C4.9715 11.3403 5.48123 12.5709 6.38856 13.4782C7.29588 14.3855 8.52648 14.8953 9.80963 14.8953C11.0928 14.8953 12.3234 14.3855 13.2307 13.4782C14.138 12.5709 14.6478 11.3403 14.6478 10.0571C14.6478 8.77397 14.138 7.54337 13.2307 6.63605C12.3234 5.72872 11.0928 5.21899 9.80963 5.21899ZM9.80963 7.15424C10.1908 7.15418 10.5683 7.2292 10.9206 7.37503C11.2728 7.52085 11.5928 7.73462 11.8624 8.00413C12.132 8.27365 12.3459 8.59362 12.4918 8.94579C12.6378 9.29796 12.7129 9.67543 12.713 10.0566C12.7131 10.4378 12.638 10.8153 12.4922 11.1676C12.3464 11.5198 12.1326 11.8398 11.8631 12.1094C11.5936 12.379 11.2736 12.5929 10.9214 12.7388C10.5693 12.8848 10.1918 12.9599 9.8106 12.96C9.04071 12.96 8.30235 12.6542 7.75796 12.1098C7.21356 11.5654 6.90772 10.827 6.90772 10.0571C6.90772 9.28723 7.21356 8.54887 7.75796 8.00448C8.30235 7.46008 9.04071 7.15424 9.8106 7.15424M14.8906 3.76755C14.5698 3.76755 14.2622 3.89498 14.0354 4.12181C13.8085 4.34865 13.6811 4.6563 13.6811 4.97708C13.6811 5.29787 13.8085 5.60552 14.0354 5.83235C14.2622 6.05918 14.5698 6.18662 14.8906 6.18662C15.2114 6.18662 15.5191 6.05918 15.7459 5.83235C15.9727 5.60552 16.1002 5.29787 16.1002 4.97708C16.1002 4.6563 15.9727 4.34865 15.7459 4.12181C15.5191 3.89498 15.2114 3.76755 14.8906 3.76755Z" fill="black"/>
<path d="M10.8044 0.380859C11.8929 0.383762 12.4454 0.389568 12.9225 0.403115L13.1102 0.409888C13.327 0.417629 13.5408 0.427305 13.7992 0.438917C14.8287 0.487298 15.5312 0.64986 16.1476 0.888863C16.7862 1.13464 17.3242 1.4675 17.8622 2.00454C18.3542 2.48825 18.735 3.07336 18.9779 3.71917C19.2169 4.33555 19.3795 5.03804 19.4278 6.06857C19.4394 6.32595 19.4491 6.5398 19.4569 6.75752L19.4627 6.94524C19.4772 7.42131 19.483 7.97382 19.4849 9.0624L19.4859 9.78425V11.0518C19.4883 11.7576 19.4809 12.4634 19.4636 13.169L19.4578 13.3567C19.4501 13.5744 19.4404 13.7883 19.4288 14.0457C19.3804 15.0762 19.2159 15.7777 18.9779 16.3951C18.7357 17.0412 18.3549 17.6265 17.8622 18.1097C17.3784 18.6016 16.7933 18.9823 16.1476 19.2254C15.5312 19.4644 14.8287 19.6269 13.7992 19.6753C13.5696 19.6861 13.3399 19.6958 13.1102 19.7044L12.9225 19.7102C12.4454 19.7237 11.8929 19.7305 10.8044 19.7324L10.0825 19.7334H8.81588C8.10977 19.7358 7.40365 19.7284 6.69775 19.7111L6.51003 19.7053C6.28032 19.6966 6.05067 19.6866 5.82108 19.6753C4.79152 19.6269 4.08903 19.4644 3.47168 19.2254C2.82595 18.9829 2.24107 18.6021 1.75802 18.1097C1.26554 17.6262 0.884466 17.041 0.641375 16.3951C0.402371 15.7787 0.23981 15.0762 0.191428 14.0457C0.180648 13.8161 0.170971 13.5864 0.1624 13.3567L0.157562 13.169C0.13973 12.4634 0.131666 11.7576 0.133371 11.0518V9.0624C0.13067 8.35662 0.137767 7.65083 0.154659 6.94524L0.161432 6.75752C0.169173 6.5398 0.178849 6.32595 0.190461 6.06857C0.238842 5.03804 0.401403 4.33651 0.640407 3.71917C0.883391 3.0727 1.26522 2.4874 1.75898 2.00454C2.24192 1.51247 2.82641 1.13172 3.47168 0.888863C4.08903 0.64986 4.79056 0.487298 5.82108 0.438917C6.07847 0.427305 6.29328 0.417629 6.51003 0.409888L6.69775 0.404082C7.40333 0.38689 8.10912 0.379471 8.81491 0.381827L10.8044 0.380859ZM9.80963 5.21899C8.52648 5.21899 7.29588 5.72872 6.38856 6.63605C5.48123 7.54337 4.9715 8.77397 4.9715 10.0571C4.9715 11.3403 5.48123 12.5709 6.38856 13.4782C7.29588 14.3855 8.52648 14.8953 9.80963 14.8953C11.0928 14.8953 12.3234 14.3855 13.2307 13.4782C14.138 12.5709 14.6478 11.3403 14.6478 10.0571C14.6478 8.77397 14.138 7.54337 13.2307 6.63605C12.3234 5.72872 11.0928 5.21899 9.80963 5.21899ZM9.80963 7.15424C10.1908 7.15418 10.5683 7.2292 10.9206 7.37503C11.2728 7.52085 11.5928 7.73462 11.8624 8.00413C12.132 8.27365 12.3459 8.59362 12.4918 8.94579C12.6378 9.29796 12.7129 9.67543 12.713 10.0566C12.7131 10.4378 12.638 10.8153 12.4922 11.1676C12.3464 11.5198 12.1326 11.8398 11.8631 12.1094C11.5936 12.379 11.2736 12.5929 10.9214 12.7388C10.5693 12.8848 10.1918 12.9599 9.8106 12.96C9.04071 12.96 8.30235 12.6542 7.75796 12.1098C7.21356 11.5654 6.90772 10.827 6.90772 10.0571C6.90772 9.28723 7.21356 8.54887 7.75796 8.00448C8.30235 7.46008 9.04071 7.15424 9.8106 7.15424M14.8906 3.76755C14.5698 3.76755 14.2622 3.89498 14.0354 4.12181C13.8085 4.34865 13.6811 4.6563 13.6811 4.97708C13.6811 5.29787 13.8085 5.60552 14.0354 5.83235C14.2622 6.05918 14.5698 6.18662 14.8906 6.18662C15.2114 6.18662 15.5191 6.05918 15.7459 5.83235C15.9727 5.60552 16.1002 5.29787 16.1002 4.97708C16.1002 4.6563 15.9727 4.34865 15.7459 4.12181C15.5191 3.89498 15.2114 3.76755 14.8906 3.76755Z" fill="url(#paint0_linear_9988_28697)"/>
<defs>
<linearGradient id="paint0_linear_9988_28697" x1="0.934073" y1="-1.0303" x2="20.4801" y2="0.859028" gradientUnits="userSpaceOnUse">
<stop stop-color="#0844FF"/>
<stop offset="1" stop-color="#4808FF"/>
</linearGradient>
</defs>
</svg>
