<svg width="199" height="38" viewBox="0 0 199 38" fill="none" xmlns="http://www.w3.org/2000/svg">
<g clip-path="url(#clip0_8778_54100)">
<path d="M13.3916 31.2233C9.56368 35.0513 3.0807 35.036 1.27018 29.9343C0.915708 28.9355 0.632293 27.9084 0.423842 26.8605C-0.427259 22.5816 0.00955724 18.1466 1.67906 14.116C3.34855 10.0856 6.17574 6.64064 9.80311 4.21691C13.4305 1.79317 17.6952 0.499512 22.0578 0.499512C26.4203 0.499512 30.685 1.79317 34.3123 4.21691C37.9397 6.64064 40.7669 10.0856 42.4364 14.1162C44.1059 18.1466 44.5426 22.5816 43.6916 26.8605C43.4832 27.9084 43.1998 28.9355 42.8452 29.9343C41.0347 35.036 34.5518 35.0513 30.7238 31.2233L24.8149 25.3144C24.2504 24.7499 24.3087 23.8189 24.4645 23.0359C24.5591 22.56 24.5105 22.0666 24.3247 21.6182C24.139 21.1698 23.8246 20.7865 23.421 20.5169C23.0175 20.2473 22.5431 20.1034 22.0578 20.1034C21.5724 20.1034 21.098 20.2473 20.6945 20.5169C20.2908 20.7865 19.9764 21.1698 19.7906 21.6182C19.6049 22.0666 19.5563 22.56 19.6511 23.0359C19.8068 23.8189 19.865 24.7499 19.3005 25.3144L13.3916 31.2233Z" fill="white"/>
<path d="M62.0653 25.9273H67.9944V29.4213H57.5391V10.8398H62.0653V25.9273Z" fill="white"/>
<path d="M76.0763 29.6328C74.6293 29.6328 73.3235 29.324 72.1588 28.7064C71.0119 28.0888 70.103 27.2065 69.4325 26.0595C68.7796 24.9125 68.4531 23.5714 68.4531 22.0361C68.4531 20.5186 68.7883 19.1862 69.4589 18.0392C70.1296 16.8746 71.0471 15.9835 72.2117 15.3659C73.3764 14.7483 74.6822 14.4395 76.1292 14.4395C77.5762 14.4395 78.882 14.7483 80.0466 15.3659C81.2113 15.9835 82.1289 16.8746 82.7994 18.0392C83.47 19.1862 83.8053 20.5186 83.8053 22.0361C83.8053 23.5537 83.4611 24.8948 82.773 26.0595C82.1025 27.2065 81.1761 28.0888 79.9937 28.7064C78.8291 29.324 77.5232 29.6328 76.0763 29.6328ZM76.0763 25.7153C76.9409 25.7153 77.6732 25.3978 78.2733 24.7625C78.8909 24.1272 79.1997 23.2185 79.1997 22.0361C79.1997 20.8538 78.8996 19.9451 78.2997 19.3098C77.7173 18.6745 76.9938 18.3568 76.1292 18.3568C75.2469 18.3568 74.5146 18.6745 73.9322 19.3098C73.3499 19.9274 73.0588 20.8361 73.0588 22.0361C73.0588 23.2185 73.3411 24.1272 73.9058 24.7625C74.4882 25.3978 75.2117 25.7153 76.0763 25.7153Z" fill="white"/>
<path d="M91.027 14.4395C92.0681 14.4395 92.977 14.6512 93.7534 15.0747C94.5474 15.4981 95.1563 16.0541 95.5798 16.7422V14.6512H100.106V29.3945C100.106 30.7533 99.8325 31.9798 99.2854 33.0737C98.756 34.1855 97.9355 35.0678 96.8239 35.7207C95.7298 36.3736 94.3622 36.7001 92.7211 36.7001C90.533 36.7001 88.7595 36.1796 87.4007 35.1384C86.0421 34.1149 85.2655 32.7208 85.0714 30.9562H89.5448C89.6859 31.5209 90.0213 31.9621 90.5507 32.2797C91.0799 32.6149 91.7329 32.7826 92.5094 32.7826C93.4446 32.7826 94.1857 32.5091 94.7328 31.9621C95.2974 31.4327 95.5798 30.5769 95.5798 29.3945V27.3035C95.1386 27.9916 94.5298 28.5564 93.7534 28.9975C92.977 29.421 92.0681 29.6328 91.027 29.6328C89.8095 29.6328 88.7066 29.324 87.7184 28.7064C86.7302 28.0711 85.9449 27.1799 85.3627 26.0329C84.798 24.8684 84.5156 23.5273 84.5156 22.0097C84.5156 20.4921 84.798 19.1598 85.3627 18.0128C85.9449 16.8658 86.7302 15.9835 87.7184 15.3659C88.7066 14.7483 89.8095 14.4395 91.027 14.4395ZM95.5798 22.0361C95.5798 20.9067 95.2622 20.0156 94.6269 19.3627C94.0093 18.7099 93.2504 18.3834 92.3505 18.3834C91.4505 18.3834 90.683 18.7099 90.0477 19.3627C89.4301 19.998 89.1212 20.8803 89.1212 22.0097C89.1212 23.139 89.4301 24.039 90.0477 24.7095C90.683 25.3624 91.4505 25.6889 92.3505 25.6889C93.2504 25.6889 94.0093 25.3624 94.6269 24.7095C95.2622 24.0565 95.5798 23.1655 95.5798 22.0361Z" fill="white"/>
<path d="M109.311 29.6326C107.864 29.6326 106.558 29.3238 105.393 28.7062C104.246 28.0885 103.337 27.2062 102.667 26.0592C102.014 24.9122 101.688 23.5711 101.688 22.0358C101.688 20.5183 102.023 19.186 102.693 18.039C103.364 16.8744 104.281 15.9832 105.446 15.3656C106.611 14.748 107.917 14.4392 109.364 14.4392C110.811 14.4392 112.116 14.748 113.281 15.3656C114.446 15.9832 115.363 16.8744 116.034 18.039C116.704 19.186 117.04 20.5183 117.04 22.0358C117.04 23.5534 116.696 24.8945 116.007 26.0592C115.337 27.2062 114.41 28.0885 113.228 28.7062C112.063 29.3238 110.758 29.6326 109.311 29.6326ZM109.311 25.715C110.175 25.715 110.908 25.3975 111.508 24.7622C112.125 24.1269 112.434 23.2182 112.434 22.0358C112.434 20.8536 112.134 19.9448 111.534 19.3095C110.952 18.6742 110.228 18.3566 109.364 18.3566C108.481 18.3566 107.749 18.6742 107.167 19.3095C106.584 19.9271 106.293 20.8359 106.293 22.0358C106.293 23.2182 106.576 24.1269 107.14 24.7622C107.723 25.3975 108.446 25.715 109.311 25.715Z" fill="white"/>
<path d="M120.919 13.1161C120.125 13.1161 119.472 12.8867 118.96 12.4279C118.466 11.9514 118.219 11.3691 118.219 10.6809C118.219 9.97504 118.466 9.39271 118.96 8.93391C119.472 8.45746 120.125 8.21924 120.919 8.21924C121.695 8.21924 122.33 8.45746 122.824 8.93391C123.336 9.39271 123.592 9.97504 123.592 10.6809C123.592 11.3691 123.336 11.9514 122.824 12.4279C122.33 12.8867 121.695 13.1161 120.919 13.1161ZM123.168 14.6513V29.4211H118.642V14.6513H123.168Z" fill="white"/>
<path d="M130.182 16.7422C130.623 16.0541 131.232 15.4981 132.009 15.0747C132.786 14.6512 133.694 14.4395 134.735 14.4395C135.953 14.4395 137.056 14.7483 138.044 15.3659C139.032 15.9835 139.809 16.8658 140.373 18.0128C140.955 19.1598 141.247 20.4921 141.247 22.0097C141.247 23.5273 140.955 24.8684 140.373 26.0329C139.809 27.1799 139.032 28.0711 138.044 28.7064C137.056 29.324 135.953 29.6328 134.735 29.6328C133.711 29.6328 132.804 29.421 132.009 28.9975C131.232 28.574 130.623 28.027 130.182 27.3565V36.4618H125.656V14.6512H130.182V16.7422ZM136.641 22.0097C136.641 20.8803 136.324 19.998 135.688 19.3627C135.07 18.7099 134.303 18.3834 133.386 18.3834C132.486 18.3834 131.718 18.7099 131.082 19.3627C130.465 20.0156 130.157 20.9067 130.157 22.0361C130.157 23.1655 130.465 24.0565 131.082 24.7095C131.718 25.3624 132.486 25.6889 133.386 25.6889C134.285 25.6889 135.053 25.3624 135.688 24.7095C136.324 24.039 136.641 23.139 136.641 22.0097Z" fill="white"/>
<path d="M148.834 29.6328C147.546 29.6328 146.399 29.4122 145.392 28.9711C144.387 28.5299 143.593 27.93 143.011 27.1711C142.429 26.3947 142.102 25.5301 142.031 24.5771H146.505C146.558 25.0888 146.796 25.5035 147.219 25.8212C147.643 26.1388 148.164 26.2976 148.782 26.2976C149.346 26.2976 149.778 26.1918 150.078 25.98C150.395 25.7507 150.554 25.4594 150.554 25.1065C150.554 24.683 150.334 24.3742 149.893 24.1801C149.452 23.9684 148.737 23.739 147.748 23.4919C146.69 23.2449 145.808 22.989 145.101 22.7243C144.396 22.442 143.787 22.0097 143.276 21.4273C142.763 20.8274 142.508 20.0244 142.508 19.0187C142.508 18.1716 142.738 17.404 143.196 16.7158C143.672 16.01 144.36 15.4541 145.26 15.0482C146.178 14.6424 147.264 14.4395 148.516 14.4395C150.369 14.4395 151.825 14.8982 152.884 15.8158C153.96 16.7335 154.578 17.951 154.737 19.4686H150.554C150.484 18.9569 150.254 18.551 149.866 18.251C149.496 17.951 149.002 17.801 148.384 17.801C147.855 17.801 147.448 17.9069 147.166 18.1187C146.884 18.3127 146.743 18.5863 146.743 18.9392C146.743 19.3627 146.964 19.6804 147.405 19.8921C147.864 20.1039 148.569 20.3157 149.522 20.5273C150.616 20.8097 151.507 21.0921 152.195 21.3744C152.884 21.6391 153.483 22.0802 153.995 22.6979C154.524 23.2978 154.799 24.1095 154.817 25.1331C154.817 25.9977 154.569 26.7741 154.074 27.4623C153.599 28.1329 152.901 28.6623 151.984 29.0505C151.084 29.4387 150.034 29.6328 148.834 29.6328Z" fill="white"/>
<path d="M171.381 14.6519V29.4217H166.855V27.41C166.396 28.0629 165.769 28.5923 164.976 28.9981C164.199 29.3864 163.335 29.5805 162.381 29.5805C161.252 29.5805 160.255 29.3335 159.391 28.8393C158.525 28.3276 157.855 27.5953 157.379 26.6425C156.902 25.6895 156.664 24.569 156.664 23.2808V14.6519H161.163V22.672C161.163 23.6602 161.42 24.4278 161.931 24.9749C162.443 25.5218 163.131 25.7954 163.996 25.7954C164.878 25.7954 165.576 25.5218 166.087 24.9749C166.599 24.4278 166.855 23.6602 166.855 22.672V14.6519H171.381Z" fill="white"/>
<path d="M192.682 14.4932C194.516 14.4932 195.973 15.049 197.049 16.1607C198.143 17.2724 198.69 18.8164 198.69 20.7928V29.4218H194.191V21.4017C194.191 20.4487 193.934 19.7164 193.423 19.2047C192.928 18.6753 192.241 18.4106 191.358 18.4106C190.476 18.4106 189.779 18.6753 189.267 19.2047C188.774 19.7164 188.526 20.4487 188.526 21.4017V29.4218H184.026V21.4017C184.026 20.4487 183.77 19.7164 183.259 19.2047C182.764 18.6753 182.076 18.4106 181.194 18.4106C180.312 18.4106 179.615 18.6753 179.103 19.2047C178.608 19.7164 178.362 20.4487 178.362 21.4017V29.4218H173.836V14.652H178.362V16.5048C178.821 15.8872 179.421 15.4019 180.162 15.049C180.903 14.6784 181.741 14.4932 182.676 14.4932C183.788 14.4932 184.777 14.7313 185.641 15.2078C186.523 15.6843 187.211 16.3637 187.706 17.246C188.217 16.4342 188.915 15.7725 189.796 15.2607C190.678 14.749 191.641 14.4932 192.682 14.4932Z" fill="white"/>
</g>
<defs>
<clipPath id="clip0_8778_54100">
<rect width="198.69" height="37.1742" fill="white" transform="translate(0 0.5)"/>
</clipPath>
</defs>
</svg>
