<svg width="46" height="46" viewBox="0 0 46 46" fill="none" xmlns="http://www.w3.org/2000/svg">
<path d="M37.5679 5.85877L34.7037 5.85796V3.45865C34.7037 2.71156 34.0979 2.10571 33.3508 2.10571C32.6037 2.10571 31.9978 2.71156 31.9978 3.45865V5.85715L13.9999 5.85174V3.45865C13.9999 2.71156 13.3941 2.10571 12.647 2.10571C11.8999 2.10571 11.2941 2.71156 11.2941 3.45865V5.85092L8.44097 5.85011H8.43881C6.54821 5.85011 4.77044 6.58638 3.43347 7.92363C2.09622 9.26088 1.35941 11.0395 1.35887 12.9317L1.35156 36.8C1.35048 40.7059 4.52556 43.8845 8.42934 43.8859L37.5563 43.8948H37.5584C39.449 43.8948 41.2268 43.1586 42.5638 41.8213C43.901 40.4841 44.6378 38.7055 44.6384 36.8133L44.6457 12.9449C44.6468 9.039 41.4717 5.8604 37.5679 5.85931V5.85877ZM41.9325 36.8119C41.9322 37.9817 41.4768 39.0811 40.6504 39.9074C39.8246 40.7335 38.7266 41.1881 37.5584 41.1881H37.5571L8.43015 41.1792C6.01813 41.1787 4.05663 39.2139 4.05745 36.8L4.06475 12.9317C4.06502 11.7619 4.52042 10.6625 5.3468 9.83615C6.17263 9.01004 7.27068 8.55545 8.43881 8.55545H8.44016L11.2941 8.55627V10.974C11.2941 11.7211 11.8999 12.3269 12.647 12.3269C13.3941 12.3269 13.9999 11.7211 13.9999 10.974V8.55708L31.9978 8.56249V10.974C31.9978 11.7211 32.6037 12.3269 33.3508 12.3269C34.0979 12.3269 34.7037 11.7211 34.7037 10.974V8.5633L37.5671 8.56411C39.9791 8.56465 41.9406 10.5291 41.9398 12.943L41.9325 36.8114V36.8119Z" fill="white"/>
<path d="M32.3525 20.7633L27.4881 19.5868L24.8667 15.3229C24.4659 14.671 23.77 14.2819 23.005 14.2819C22.2401 14.2819 21.5441 14.671 21.1434 15.3229L18.5219 19.5868L13.6578 20.7633C12.9145 20.943 12.3295 21.4844 12.093 22.2118C11.8565 22.9391 12.0113 23.7211 12.507 24.3034L15.7514 28.116L15.3669 33.1078C15.3081 33.8703 15.6429 34.5942 16.2614 35.0436C16.8803 35.4933 17.672 35.5872 18.379 35.2958L23.0053 33.3879L27.6315 35.2961C27.9029 35.4081 28.1865 35.463 28.4682 35.463C28.9206 35.463 29.3676 35.321 29.7489 35.0439C30.3677 34.5944 30.7022 33.8709 30.6435 33.1078L30.259 28.1163L33.5033 24.3037C33.999 23.7214 34.1535 22.9394 33.9173 22.2121C33.6808 21.4847 33.0958 20.9433 32.3528 20.7636L32.3525 20.7633ZM28.0593 26.5255C27.6824 26.9679 27.4998 27.5307 27.5444 28.1098L27.8805 32.4714L23.8382 30.804C23.5695 30.6934 23.2875 30.6379 23.005 30.6379C22.7225 30.6379 22.4406 30.6934 22.1719 30.804L18.1298 32.4711L18.4659 28.1095C18.5106 27.5302 18.3276 26.9674 17.9512 26.5255L15.1163 23.194L19.3675 22.1658C19.932 22.0289 20.4104 21.6809 20.7145 21.1863L23.005 17.4608L25.2956 21.1863C25.5997 21.6812 26.0781 22.0289 26.6434 22.1661L30.8938 23.194L28.0591 26.5252L28.0593 26.5255Z" fill="white"/>
</svg>
