<svg width="124" height="21" viewBox="0 0 124 21" fill="none" xmlns="http://www.w3.org/2000/svg">
<g clip-path="url(#clip0_1132_15691)">
<path d="M4.51527 19.8034C4.03277 20.0509 3.48527 19.6171 3.58277 19.0634L4.62027 13.1509L0.21652 8.9559C-0.19473 8.5634 0.0190199 7.8459 0.57027 7.7684L6.69277 6.8984L9.42277 1.48965C9.66902 1.00215 10.3353 1.00215 10.5815 1.48965L13.3115 6.8984L19.434 7.7684C19.9853 7.8459 20.199 8.5634 19.7865 8.9559L15.384 13.1509L16.4215 19.0634C16.519 19.6171 15.9715 20.0509 15.489 19.8034L10.0003 16.9834L4.51402 19.8034H4.51527Z" fill="#FBB102"/>
</g>
<g clip-path="url(#clip1_1132_15691)">
<path d="M30.5153 19.8034C30.0328 20.0509 29.4853 19.6171 29.5828 19.0634L30.6203 13.1509L26.2165 8.9559C25.8053 8.5634 26.019 7.8459 26.5703 7.7684L32.6928 6.8984L35.4228 1.48965C35.669 1.00215 36.3353 1.00215 36.5815 1.48965L39.3115 6.8984L45.434 7.7684C45.9853 7.8459 46.199 8.5634 45.7865 8.9559L41.384 13.1509L42.4215 19.0634C42.519 19.6171 41.9715 20.0509 41.489 19.8034L36.0003 16.9834L30.514 19.8034H30.5153Z" fill="#FBB102"/>
</g>
<g clip-path="url(#clip2_1132_15691)">
<path d="M56.5153 19.8034C56.0328 20.0509 55.4853 19.6171 55.5828 19.0634L56.6203 13.1509L52.2165 8.9559C51.8053 8.5634 52.019 7.8459 52.5703 7.7684L58.6928 6.8984L61.4228 1.48965C61.669 1.00215 62.3353 1.00215 62.5815 1.48965L65.3115 6.8984L71.434 7.7684C71.9853 7.8459 72.199 8.5634 71.7865 8.9559L67.384 13.1509L68.4215 19.0634C68.519 19.6171 67.9715 20.0509 67.489 19.8034L62.0003 16.9834L56.514 19.8034H56.5153Z" fill="#FBB102"/>
</g>
<g clip-path="url(#clip3_1132_15691)">
<path d="M82.5153 19.8034C82.0328 20.0509 81.4853 19.6171 81.5828 19.0634L82.6203 13.1509L78.2165 8.9559C77.8053 8.5634 78.019 7.8459 78.5703 7.7684L84.6928 6.8984L87.4228 1.48965C87.669 1.00215 88.3353 1.00215 88.5815 1.48965L91.3115 6.8984L97.434 7.7684C97.9853 7.8459 98.199 8.5634 97.7865 8.9559L93.384 13.1509L94.4215 19.0634C94.519 19.6171 93.9715 20.0509 93.489 19.8034L88.0003 16.9834L82.514 19.8034H82.5153Z" fill="#FBB102"/>
</g>
<g clip-path="url(#clip4_1132_15691)">
<path d="M108.515 19.8034C108.033 20.0509 107.485 19.6171 107.583 19.0634L108.62 13.1509L104.217 8.9559C103.805 8.5634 104.019 7.8459 104.57 7.7684L110.693 6.8984L113.423 1.48965C113.669 1.00215 114.335 1.00215 114.582 1.48965L117.312 6.8984L123.434 7.7684C123.985 7.8459 124.199 8.5634 123.787 8.9559L119.384 13.1509L120.422 19.0634C120.519 19.6171 119.972 20.0509 119.489 19.8034L114 16.9834L108.514 19.8034H108.515Z" fill="#FBB102"/>
</g>
<defs>
<clipPath id="clip0_1132_15691">
<rect width="20" height="20" fill="white" transform="translate(0 0.5)"/>
</clipPath>
<clipPath id="clip1_1132_15691">
<rect width="20" height="20" fill="white" transform="translate(26 0.5)"/>
</clipPath>
<clipPath id="clip2_1132_15691">
<rect width="20" height="20" fill="white" transform="translate(52 0.5)"/>
</clipPath>
<clipPath id="clip3_1132_15691">
<rect width="20" height="20" fill="white" transform="translate(78 0.5)"/>
</clipPath>
<clipPath id="clip4_1132_15691">
<rect width="20" height="20" fill="white" transform="translate(104 0.5)"/>
</clipPath>
</defs>
</svg>
