<svg width="74" height="74" viewBox="0 0 74 74" fill="none" xmlns="http://www.w3.org/2000/svg">
<g clip-path="url(#clip0_8778_45657)">
<path d="M44.0278 42.8364C44.1848 42.1367 44.4808 41.5119 44.8866 40.9802C42.7291 40.1596 41.4143 37.666 41.9655 35.4044L41.9788 35.3451C42.4207 33.3767 44.0109 31.9524 45.8782 31.6242C45.6577 30.8585 45.6364 30.0379 45.8147 29.2434L45.828 29.1841C46.3456 26.6285 49.0972 24.8857 51.6361 25.5055L51.8021 25.5427L51.8793 25.1988C53.1669 19.4904 49.571 13.813 43.8745 12.5281C38.1706 11.2478 32.4932 14.8436 31.2202 20.5428L30.4562 23.9462L36.85 25.288C39.6488 25.8041 41.5835 28.8105 40.9013 31.572C40.3431 34.3365 37.3737 36.2172 34.6359 35.5403L32.4039 35.0518C32.3327 35.0358 32.2601 35.0818 32.2514 35.1483L29.1378 48.9916C28.927 49.8473 29.5202 50.7839 30.3839 50.9591C31.2733 51.1587 32.159 50.5977 32.3514 49.713C32.3567 49.6892 33.2484 45.7167 33.2484 45.7167C33.4241 44.9341 34.2082 44.4374 34.9909 44.6131C35.7735 44.7888 36.2701 45.5729 36.0944 46.3555L35.248 50.1265C35.0033 51.1054 35.6793 52.1726 36.6688 52.3698C37.6478 52.6145 38.715 51.9385 38.9122 50.949L39.756 47.1899C39.9317 46.4072 40.7158 45.9106 41.4984 46.0863C42.2811 46.262 42.7777 47.0461 42.602 47.8287L41.7635 51.5641C41.5227 52.5813 42.1592 53.6023 43.1791 53.8312C44.158 54.0758 45.2252 53.3999 45.4224 52.4103L46.3674 48.2006C44.524 47.2014 43.4993 44.9411 43.9908 42.8903L44.0278 42.8364Z" fill="white"/>
<path d="M11.9637 33.1355C10.7579 38.5074 14.1395 43.8626 19.5087 45.0803L26.7045 46.4838L29.3929 34.5069C29.7167 32.898 31.4446 31.8036 33.0375 32.1985L35.2669 32.699C36.4829 32.9968 37.797 32.1646 38.0402 30.9424C38.1786 30.3258 38.0692 29.7034 37.7263 29.178C37.3834 28.6526 36.8601 28.2923 36.2481 28.1611L23.9302 25.5767C18.5492 24.3564 13.1721 27.7519 11.9637 33.1355Z" fill="white"/>
<path d="M54.653 38.2531L54.6663 38.1938C54.9117 37.1839 54.2246 36.0831 53.1995 35.8779L49.4997 35.0474L47.1517 34.5203C46.1082 34.2861 45.07 34.9436 44.8358 35.9872L44.8225 36.0465C44.5771 37.0564 45.2642 38.1572 46.2893 38.3624L52.337 39.72C53.3806 39.9542 54.4188 39.2966 54.653 38.2531Z" fill="white"/>
<path d="M56.16 31.552L56.1733 31.4927C56.4075 30.4492 55.75 29.411 54.7064 29.1767L51.0067 28.3462C49.9968 28.1009 48.8959 28.7879 48.6907 29.8131L48.6774 29.8724C48.432 30.8823 49.1263 31.9785 50.1442 32.1883L53.844 33.0188C54.8876 33.2531 55.9257 32.5955 56.16 31.552Z" fill="white"/>
<path d="M50.7355 46.3913C51.779 46.6256 52.8172 45.968 53.0514 44.9245L53.0647 44.8652C53.299 43.8217 52.6414 42.7835 51.5979 42.5492L49.2025 42.0115C48.159 41.7773 47.1208 42.4349 46.8865 43.4784L46.8732 43.5377C46.6279 44.5476 47.3149 45.6484 48.3401 45.8536L50.7355 46.3913Z" fill="white"/>
</g>
<defs>
<clipPath id="clip0_8778_45657">
<rect width="44" height="44" fill="white" transform="translate(6.10547 29.3408) rotate(-32.3486)"/>
</clipPath>
</defs>
</svg>
