<svg width="46" height="46" viewBox="0 0 46 46" fill="none" xmlns="http://www.w3.org/2000/svg">
<g clip-path="url(#clip0_8979_62039)">
<mask id="mask0_8979_62039" style="mask-type:luminance" maskUnits="userSpaceOnUse" x="0" y="0" width="46" height="46">
<path d="M0 0H46V46H0V0Z" fill="white"/>
</mask>
<g mask="url(#mask0_8979_62039)">
<path fill-rule="evenodd" clip-rule="evenodd" d="M8.62573 1.91735C8.37173 1.91735 8.12816 2.01824 7.94853 2.19783C7.76898 2.37742 7.66808 2.621 7.66808 2.87498V12.4583C7.66808 12.7123 7.76898 12.9558 7.94853 13.1355C8.12816 13.315 8.37173 13.4159 8.62573 13.4159H10.5431V16.5729L16.1861 13.4159H23.0007C23.2546 13.4159 23.4983 13.315 23.6778 13.1355C23.8575 12.9558 23.9584 12.7123 23.9584 12.4583V2.87498C23.9584 2.621 23.8575 2.37742 23.6778 2.19783C23.4983 2.01824 23.2546 1.91735 23.0007 1.91735H8.62573ZM6.59228 0.84154C7.13157 0.302243 7.86305 -0.000732422 8.62573 -0.000732422H23.0007C23.7634 -0.000732422 24.4948 0.302243 25.0342 0.84154C25.5734 1.38084 25.8764 2.11229 25.8764 2.87498V12.4583C25.8764 13.221 25.5734 13.9524 25.0342 14.4918C24.4948 15.0311 23.7634 15.334 23.0007 15.334H16.6862L8.62504 19.8437V15.334C7.86259 15.3338 7.13141 15.0309 6.59228 14.4918C6.05298 13.9524 5.75 13.221 5.75 12.4583V2.87498C5.75 2.11229 6.05298 1.38084 6.59228 0.84154Z" fill="white"/>
<path fill-rule="evenodd" clip-rule="evenodd" d="M24.9174 3.8324H37.3757C38.1384 3.8324 38.8699 4.13537 39.4091 4.67467C39.9485 5.21397 40.2514 5.94542 40.2514 6.7081V16.2914C40.2514 17.0541 39.9485 17.7856 39.4091 18.3249C38.87 18.864 38.1388 19.167 37.3764 19.1671V23.6741L29.292 19.1671H23.0007C22.238 19.1671 21.5065 18.8642 20.9673 18.3249C20.428 17.7856 20.125 17.0541 20.125 16.2914V14.3748H22.043V16.2914C22.043 16.5454 22.1439 16.789 22.3236 16.9686C22.5031 17.1482 22.7467 17.2491 23.0007 17.2491H29.7906L35.4583 20.4088V17.2491H37.3757C37.6297 17.2491 37.8733 17.1482 38.0528 16.9686C38.2324 16.789 38.3333 16.5454 38.3333 16.2914V6.7081C38.3333 6.45412 38.2324 6.21054 38.0528 6.03096C37.8733 5.85137 37.6297 5.75047 37.3757 5.75047H24.9174V3.8324Z" fill="white"/>
<path fill-rule="evenodd" clip-rule="evenodd" d="M23.0007 26.8336C20.884 26.8336 19.1681 28.5496 19.1681 30.6663C19.1681 32.783 20.884 34.4989 23.0007 34.4989C25.1174 34.4989 26.8333 32.783 26.8333 30.6663C26.8333 28.5496 25.1174 26.8336 23.0007 26.8336ZM17.25 30.6663C17.25 27.4903 19.8247 24.9156 23.0007 24.9156C26.1768 24.9156 28.7515 27.4903 28.7515 30.6663C28.7515 33.8423 26.1768 36.417 23.0007 36.417C19.8247 36.417 17.25 33.8423 17.25 30.6663Z" fill="white"/>
<path fill-rule="evenodd" clip-rule="evenodd" d="M18.2194 40.2508C17.203 40.2508 16.2282 40.6546 15.5093 41.3733C14.7906 42.0921 14.3868 43.0669 14.3868 44.0833V46H12.4688V44.0833C12.4688 42.5582 13.0746 41.0955 14.1531 40.017C15.2316 38.9385 16.6943 38.3326 18.2194 38.3326H27.8028C29.328 38.3326 30.7907 38.9385 31.8692 40.017C32.9476 41.0955 33.5535 42.5582 33.5535 44.0833V46H31.6354V44.0833C31.6354 43.0669 31.2316 42.0921 30.5129 41.3733C29.7941 40.6546 28.8193 40.2508 27.8028 40.2508H18.2194Z" fill="white"/>
<path fill-rule="evenodd" clip-rule="evenodd" d="M9.58929 26.8336C8.00183 26.8336 6.71496 28.1205 6.71496 29.7079C6.71496 31.2954 8.00183 32.5823 9.58929 32.5823C11.1767 32.5823 12.4635 31.2954 12.4635 29.7079C12.4635 28.1205 11.1767 26.8336 9.58929 26.8336ZM4.79688 29.7079C4.79688 27.0612 6.9425 24.9156 9.58929 24.9156C12.236 24.9156 14.3816 27.0612 14.3816 29.7079C14.3816 32.3547 12.236 34.5003 9.58929 34.5003C6.9425 34.5003 4.79688 32.3547 4.79688 29.7079Z" fill="white"/>
<path fill-rule="evenodd" clip-rule="evenodd" d="M6.23508 38.3342C5.59985 38.3342 4.99064 38.5866 4.54147 39.0358C4.0923 39.4849 3.83995 40.0941 3.83995 40.7293V44.0835H1.92188V40.7293C1.92188 39.5854 2.3763 38.4883 3.18518 37.6795C3.99407 36.8705 5.09114 36.4161 6.23508 36.4161H12.9434C13.8694 36.4162 14.7709 36.7144 15.5144 37.2664C16.2579 37.8184 16.804 38.5952 17.0719 39.4816L15.2358 40.0365C15.087 39.5442 14.7838 39.113 14.371 38.8064C13.9581 38.4999 13.4576 38.3343 12.9434 38.3342H6.23508Z" fill="white"/>
<path fill-rule="evenodd" clip-rule="evenodd" d="M36.4174 26.8336C34.83 26.8336 33.5431 28.1205 33.5431 29.7079C33.5431 31.2954 34.83 32.5823 36.4174 32.5823C38.0048 32.5823 39.2917 31.2954 39.2917 29.7079C39.2917 28.1205 38.0048 26.8336 36.4174 26.8336ZM31.625 29.7079C31.625 27.0612 33.7707 24.9156 36.4174 24.9156C39.0642 24.9156 41.2098 27.0612 41.2098 29.7079C41.2098 32.3547 39.0642 34.5003 36.4174 34.5003C33.7707 34.5003 31.625 32.3547 31.625 29.7079Z" fill="white"/>
<path fill-rule="evenodd" clip-rule="evenodd" d="M33.0659 38.3342C32.5517 38.3343 32.0512 38.4999 31.6384 38.8064C31.2255 39.113 30.9223 39.5442 30.7735 40.0365L28.9375 39.4816C29.2054 38.5952 29.7514 37.8184 30.4949 37.2664C31.2383 36.7144 32.1398 36.4162 33.0658 36.4161H39.7743C40.9182 36.4161 42.0153 36.8705 42.8241 37.6795C43.633 38.4883 44.0874 39.5854 44.0874 40.7293V44.0835H42.1694V40.7293C42.1694 40.0941 41.917 39.4849 41.4678 39.0358C41.0187 38.5866 40.4095 38.3342 39.7743 38.3342H33.0659Z" fill="white"/>
</g>
</g>
<defs>
<clipPath id="clip0_8979_62039">
<rect width="46" height="46" fill="white"/>
</clipPath>
</defs>
</svg>
