<svg width="46" height="46" viewBox="0 0 46 46" fill="none" xmlns="http://www.w3.org/2000/svg">
<path d="M17.5441 29.5181L10.3092 36.7531C10.1913 36.871 10.125 37.031 10.125 37.1978C10.125 37.3646 10.1913 37.5246 10.3092 37.6425C10.4272 37.7605 10.5871 37.8267 10.7539 37.8267C10.9207 37.8267 11.0807 37.7605 11.1987 37.6425L18.4336 30.4076C18.492 30.3492 18.5383 30.2799 18.5699 30.2035C18.6015 30.1272 18.6178 30.0455 18.6178 29.9629C18.6178 29.8803 18.6015 29.7985 18.5699 29.7222C18.5383 29.6459 18.492 29.5765 18.4336 29.5181C18.3752 29.4597 18.3059 29.4134 18.2296 29.3818C18.1533 29.3502 18.0715 29.3339 17.9889 29.3339C17.9063 29.3339 17.8245 29.3502 17.7482 29.3818C17.6719 29.4134 17.6026 29.4597 17.5441 29.5181H17.5441Z" fill="white"/>
<path d="M16.4804 27.568C16.422 27.5096 16.3527 27.4633 16.2763 27.4317C16.2 27.4001 16.1183 27.3838 16.0357 27.3838C15.9531 27.3838 15.8713 27.4001 15.795 27.4317C15.7187 27.4633 15.6493 27.5096 15.5909 27.568L8.35609 34.803C8.29768 34.8614 8.25136 34.9307 8.21975 35.007C8.18814 35.0833 8.17188 35.1651 8.17188 35.2477C8.17188 35.3303 8.18814 35.4121 8.21975 35.4884C8.25136 35.5647 8.29768 35.634 8.35609 35.6924C8.41449 35.7508 8.48382 35.7971 8.56013 35.8287C8.63644 35.8603 8.71822 35.8766 8.80081 35.8766C8.88341 35.8766 8.96519 35.8603 9.0415 35.8287C9.1178 35.7971 9.18714 35.7508 9.24554 35.6924L16.4805 28.4576C16.5389 28.3991 16.5852 28.3298 16.6168 28.2535C16.6484 28.1772 16.6647 28.0954 16.6647 28.0128C16.6647 27.9302 16.6484 27.8484 16.6168 27.7721C16.5852 27.6957 16.5388 27.6264 16.4804 27.568Z" fill="white"/>
<path d="M16.0701 21.0587L17.3639 22.3524L15.857 23.177C15.8046 23.2057 15.7565 23.2418 15.7142 23.284L5.48687 33.5108C4.79128 34.208 4.40063 35.1526 4.40063 36.1375C4.40063 37.1223 4.79128 38.0669 5.48687 38.7641L7.23245 40.5097C7.92963 41.2052 8.87425 41.5959 9.85908 41.5959C10.8439 41.5959 11.7885 41.2052 12.4857 40.5097L22.7128 30.2826C22.7551 30.2403 22.7911 30.1922 22.8198 30.1398L23.6444 28.633L36.0992 41.0878C36.7614 41.7439 37.6564 42.111 38.5885 42.1089C39.5206 42.1067 40.4139 41.7355 41.073 41.0764C41.7321 40.4173 42.1034 39.5239 42.1055 38.5918C42.1076 37.6597 41.7405 36.7647 41.0844 36.1026L27.5379 22.5561L28.7394 21.3546C28.7978 21.2962 28.8442 21.2269 28.8758 21.1506C28.9074 21.0743 28.9237 20.9925 28.9237 20.9099C28.9237 20.8273 28.9074 20.7455 28.8758 20.6692C28.8442 20.5929 28.7978 20.5236 28.7394 20.4652L28.4665 20.1922L36.6153 12.0434L38.6796 11.3114C38.8194 11.2617 38.9372 11.1642 39.0121 11.0362L41.508 6.76732C41.5782 6.6473 41.6066 6.5074 41.5889 6.36951C41.5711 6.23161 41.5081 6.10349 41.4098 6.00518L39.9917 4.58655C39.8934 4.48823 39.7653 4.42527 39.6274 4.40751C39.4895 4.38974 39.3496 4.41817 39.2296 4.48835L34.9607 6.9843C34.8327 7.05918 34.7352 7.17692 34.6856 7.31672L33.9531 9.38106L25.8042 17.5299L25.5313 17.2569C25.4729 17.1985 25.4036 17.1522 25.3272 17.1206C25.2509 17.089 25.1692 17.0727 25.0866 17.0727C25.004 17.0727 24.9222 17.089 24.8459 17.1206C24.7696 17.1522 24.7002 17.1985 24.6418 17.2569L23.4404 18.4586L21.0553 16.0731C21.6818 14.4954 21.8445 12.7716 21.5241 11.1046C21.2037 9.43755 20.4136 7.8968 19.2469 6.66379C18.0802 5.43077 16.5854 4.55683 14.9387 4.1449C13.2919 3.73296 11.5617 3.80019 9.95184 4.33867C9.85019 4.37261 9.7589 4.43197 9.68663 4.5111C9.61436 4.59024 9.56352 4.68653 9.53892 4.79084C9.51432 4.89515 9.51678 5.00401 9.54608 5.1071C9.57537 5.21019 9.63052 5.30408 9.7063 5.37987L12.8239 8.49744L12.1075 12.0672L8.38793 12.7246L5.38328 9.69892C5.30762 9.62279 5.21376 9.56725 5.11061 9.53757C5.00745 9.5079 4.89842 9.50508 4.79387 9.52938C4.68932 9.55369 4.59271 9.6043 4.51322 9.67643C4.43373 9.74856 4.37398 9.8398 4.33966 9.9415C3.79812 11.5517 3.72837 13.2832 4.13862 14.9317C4.54887 16.5803 5.42202 18.0771 6.65507 19.2457C7.88812 20.4143 9.42965 21.2059 11.0978 21.5271C12.766 21.8484 14.4913 21.6858 16.0701 21.0587ZM22.9403 27.2996C22.9396 27.301 22.9388 27.3024 22.938 27.3037L21.7596 29.4569L11.5962 39.6203C11.1352 40.0804 10.5104 40.3387 9.85903 40.3387C9.20767 40.3387 8.58291 40.0804 8.12181 39.6203L6.37624 37.8747C5.91622 37.4136 5.65787 36.7889 5.65787 36.1375C5.65787 35.4862 5.91622 34.8614 6.37624 34.4003L16.5396 24.2369L18.693 23.0584L18.6967 23.0564L20.6373 21.9944L24.0021 25.3591L22.9403 27.2996ZM27.7486 24.5453L40.195 36.992C40.6162 37.4181 40.8516 37.9935 40.8499 38.5925C40.8481 39.1916 40.6094 39.7656 40.1858 40.1892C39.7622 40.6128 39.1881 40.8515 38.5891 40.8532C37.99 40.8549 37.4146 40.6195 36.9886 40.1984L24.2736 27.4832L24.9674 26.2154C25.1442 26.3115 25.3353 26.3783 25.5334 26.4131L35.4668 36.3466C35.5252 36.405 35.5946 36.4513 35.6709 36.4829C35.7472 36.5145 35.829 36.5308 35.9116 36.5308C35.9942 36.5308 36.0759 36.5145 36.1522 36.4829C36.2286 36.4513 36.2979 36.405 36.3563 36.3466C36.4147 36.2882 36.461 36.2188 36.4926 36.1425C36.5242 36.0662 36.5405 35.9844 36.5405 35.9019C36.5405 35.8193 36.5242 35.7375 36.4926 35.6612C36.461 35.5849 36.4147 35.5155 36.3563 35.4571L26.9779 26.0791C27.0559 26.0226 27.1295 25.9604 27.1981 25.8928C27.3734 25.7184 27.5124 25.511 27.6071 25.2825C27.7017 25.054 27.7501 24.809 27.7494 24.5617C27.7493 24.5563 27.7487 24.551 27.7486 24.5453ZM34.9429 10.1703C35.009 10.1042 35.0596 10.0241 35.0909 9.93593L35.794 7.95425L39.4455 5.8192L40.1773 6.55107L38.0424 10.2025L36.0607 10.9056C35.9725 10.9369 35.8925 10.9875 35.8263 11.0537L27.5771 19.3029L26.6937 18.4194L34.9429 10.1703ZM25.087 18.5913L27.4057 20.91L26.4237 21.8921L24.1049 19.5733L25.087 18.5913ZM26.3089 24.12C26.3671 24.178 26.4133 24.2468 26.4449 24.3227C26.4765 24.3985 26.4928 24.4799 26.4929 24.562C26.493 24.6442 26.4769 24.7256 26.4455 24.8015C26.4141 24.8774 26.368 24.9464 26.3099 25.0045C26.2518 25.0626 26.1828 25.1086 26.1069 25.14C26.031 25.1714 25.9496 25.1875 25.8675 25.1874C25.7853 25.1873 25.704 25.171 25.6281 25.1395C25.5523 25.1079 25.4834 25.0617 25.4254 25.0034L20.9935 20.5715C20.9352 20.5135 20.889 20.4446 20.8574 20.3688C20.8259 20.2929 20.8096 20.2116 20.8095 20.1294C20.8094 20.0473 20.8255 19.9659 20.8569 19.89C20.8883 19.8141 20.9343 19.7451 20.9924 19.687C21.0505 19.6289 21.1195 19.5828 21.1954 19.5514C21.2713 19.52 21.3527 19.5039 21.4349 19.504C21.517 19.5041 21.5984 19.5204 21.6742 19.552C21.7501 19.5836 21.8189 19.6298 21.8769 19.688L26.3089 24.12ZM5.26415 11.3638L7.72767 13.8443C7.7992 13.9163 7.88711 13.97 7.98388 14.0006C8.08064 14.0313 8.18339 14.0381 8.28335 14.0204L12.7495 13.2311C12.8741 13.2091 12.9891 13.15 13.0796 13.0616C13.1701 12.9732 13.2318 12.8595 13.2567 12.7355L14.1232 8.41443C14.1436 8.31287 14.1385 8.20784 14.1086 8.10869C14.0786 8.00954 14.0246 7.91933 13.9513 7.84608L11.3707 5.26576C12.5928 5.0333 13.8532 5.10424 15.0414 5.47235C16.2297 5.84045 17.3094 6.49449 18.186 7.37709C19.284 8.48132 20.0204 9.89322 20.2975 11.4256C20.5747 12.9579 20.3795 14.5383 19.7378 15.9572C19.6846 16.0738 19.6683 16.2039 19.6911 16.33C19.7139 16.4561 19.7747 16.5723 19.8653 16.6629L21.4512 18.2479C21.4459 18.2479 21.4406 18.2471 21.4352 18.2471C21.1879 18.2464 20.9429 18.2948 20.7144 18.3895C20.4859 18.4841 20.2785 18.6231 20.1041 18.7985C20.0365 18.8671 19.9743 18.9406 19.9178 19.0186L19.267 18.3678C19.2086 18.3094 19.1393 18.263 19.063 18.2314C18.9867 18.1998 18.9049 18.1836 18.8223 18.1836C18.7397 18.1836 18.6579 18.1998 18.5816 18.2314C18.5053 18.263 18.436 18.3094 18.3776 18.3678C18.3192 18.4262 18.2728 18.4955 18.2412 18.5718C18.2096 18.6481 18.1934 18.7299 18.1934 18.8125C18.1934 18.8951 18.2096 18.9769 18.2412 19.0532C18.2728 19.1295 18.3192 19.1988 18.3776 19.2572L19.5834 20.4629C19.6182 20.661 19.6849 20.8522 19.781 21.0289L18.5133 21.723L16.6592 19.869C16.5686 19.7783 16.4524 19.7176 16.3263 19.6948C16.2002 19.672 16.0701 19.6883 15.9535 19.7415C14.5346 20.3831 12.9542 20.5783 11.4219 20.3012C9.88953 20.024 8.47763 19.2876 7.37341 18.1896C6.48931 17.3119 5.83454 16.2303 5.46673 15.04C5.09892 13.8497 5.02935 12.5873 5.26415 11.3638Z" fill="white"/>
</svg>
