<svg width="23" height="3" viewBox="0 0 23 3" fill="none" xmlns="http://www.w3.org/2000/svg">
<path d="M10.147 2.66809C10.147 2.66809 10.6747 2.67533 11.3189 2.66809C11.9558 2.66809 12.4842 2.67531 12.4842 2.67531L21.3583 2.67531C21.9808 2.67531 22.5164 2.13969 22.5164 1.50272C22.5019 0.865758 21.9808 0.33013 21.3511 0.337368L12.4842 0.33013C12.4842 0.33013 11.9558 0.33013 11.3189 0.330131C10.6819 0.344607 10.1463 0.33013 10.1463 0.337369L1.27947 0.330131C0.671461 0.330131 0.10688 0.865759 0.121357 1.50272C0.121357 2.13969 0.671461 2.67531 1.27947 2.67531L10.147 2.66809Z" fill="white"/>
</svg>
